<?xml version="1.0" standalone="no"?>
<!DOCTYPE svg PUBLIC "-//W3C//DTD SVG 1.1//EN" "http://www.w3.org/Graphics/SVG/1.1/DTD/svg11.dtd" >
<svg xmlns="http://www.w3.org/2000/svg" xmlns:xlink="http://www.w3.org/1999/xlink" version="1.1">
<metadata>
Created by FontForge 20170910 at Wed May 30 00:17:01 2018
 By Jimmy Wärting
Copyright (C) 2015-2018 GurbaniNow Dev Team (https://gurbaninow.com); Copyright (C) 2001 Kulbir S. Thind (gurbanifiles.org)
</metadata>
<defs>
<font id="OpenGurbaniAkhar-Bold" horiz-adv-x="20" >
  <font-face 
    font-family="OpenGurbaniAkhar"
    font-weight="700"
    font-stretch="normal"
    units-per-em="2000"
    panose-1="0 0 8 0 0 0 0 0 0 0"
    ascent="1600"
    descent="-400"
    x-height="1198"
    cap-height="1744"
    bbox="-1038 -796 2648 1856"
    underline-thickness="100"
    underline-position="-650"
    unicode-range="U+0020-2202"
  />
<missing-glyph horiz-adv-x="1000" 
d="M250 125h500v950h-500v-950zM125 0v1200h750v-1200h-750z" />
    <glyph glyph-name=".notdef" horiz-adv-x="1000" 
d="M250 125h500v950h-500v-950zM125 0v1200h750v-1200h-750z" />
    <glyph glyph-name="space" unicode=" " horiz-adv-x="700" 
 />
    <glyph glyph-name="exclam" unicode="!" horiz-adv-x="964" 
d="M648 238c37 0 68 -13 96 -40c26 -27 40 -59 40 -97s-14 -68 -42 -89c-29 -21 -60 -32 -93 -32s-63 10 -91 30c-26 21 -40 51 -40 92s12 74 38 98c24 26 55 38 92 38zM573 1285c17 37 49 55 97 55c46 0 78 -11 94 -32c15 -22 23 -47 23 -74c0 -199 -24 -427 -73 -686
l-44 -212h-48l-26 206c-27 232 -40 441 -40 628c0 53 6 91 17 115z" />
    <glyph glyph-name="quotedbl" unicode="&#x22;" horiz-adv-x="860" 
d="M258 886h-48c-47 261 -70 403 -70 424s10 40 30 56c20 15 42 22 65 22c25 0 46 -7 65 -22s28 -39 28 -74c0 -33 -23 -169 -70 -406zM640 886h-46c-48 224 -72 363 -72 418c0 27 10 47 29 62s41 22 65 22s46 -7 66 -22s30 -31 30 -50c0 -18 -24 -161 -72 -430z" />
    <glyph glyph-name="numbersign" unicode="#" horiz-adv-x="1550" 
d="M898 740h-284l-70 -278h284zM1380 740h-340l-70 -278h266v-142h-306l-70 -274h-142l70 274h-282l-70 -274h-144l70 274h-302v142h342l70 278h-266v142h300l72 278h146l-74 -278h284l72 278h144l-70 -278h300v-142z" />
    <glyph glyph-name="dollar" unicode="$" horiz-adv-x="986" 
d="M430 518v-392c71 4 123 20 156 49s50 77 50 145c0 41 -17 76 -52 105c-34 29 -85 60 -154 93zM346 1056c-56 -5 -102 -21 -139 -46c-37 -26 -55 -61 -55 -104c0 -44 20 -82 59 -114c20 -16 65 -42 135 -78v342zM602 910c-55 77 -113 124 -172 142v-382
c105 -54 179 -98 221 -133c78 -63 118 -133 121 -209v-15c0 -91 -30 -164 -90 -219c-63 -58 -147 -90 -252 -96v-132h-84v132c-111 7 -196 44 -255 111c-27 29 -51 74 -73 133l126 46c34 -94 101 -147 202 -160v432c-120 56 -196 97 -228 123c-75 60 -112 140 -112 240
c0 78 33 140 100 187c68 48 148 75 240 82v120h84v-122c103 -19 195 -85 276 -198z" />
    <glyph glyph-name="percent" unicode="%" horiz-adv-x="1628" 
d="M1318 518c-40 41 -89 62 -147 62h-1c-57 0 -105 -20 -146 -60c-41 -41 -62 -91 -62 -149c0 -55 20 -104 61 -145s90 -62 147 -62c56 0 104 20 144 61c41 42 62 92 63 151c0 55 -20 102 -59 142zM954 589c60 60 132 90 216 90c85 0 157 -30 217 -91s90 -133 90 -216
s-31 -155 -91 -215c-62 -60 -134 -90 -217 -90s-155 30 -215 91c-61 60 -91 132 -91 216c0 83 30 155 91 215zM1244 1388l-790 -1416h-148l808 1416h130zM596 1260c-40 41 -89 62 -146 62s-106 -20 -146 -60c-41 -41 -62 -91 -62 -149c0 -56 20 -105 60 -146s88 -62 143 -62
h3c57 1 105 21 145 62c41 42 62 92 62 151c0 55 -20 102 -59 142zM232 1331c60 60 132 90 216 90c85 0 157 -31 218 -91c61 -62 91 -134 91 -216c0 -84 -31 -155 -91 -215c-62 -60 -134 -90 -218 -90s-156 30 -216 90c-61 60 -91 132 -91 216s30 156 91 216z" />
    <glyph glyph-name="ampersand" unicode="&#x26;" horiz-adv-x="1132" 
d="M100 195h3c25 1 47 -9 66 -29s29 -44 29 -71s-10 -50 -30 -69c-20 -20 -44 -30 -71 -30h-1c-26 0 -49 10 -68 30c-20 21 -30 45 -30 72c0 25 10 48 30 67c21 19 45 29 72 30zM494 212c15 -10 28 -20 42 -28c12 -10 34 -17 62 -22c30 -6 55 -9 76 -9c93 0 143 24 152 73
c1 6 1 12 1 17c0 30 -14 53 -41 68c-28 15 -55 23 -80 23c-73 0 -127 -17 -160 -52zM454 676c-117 0 -176 -46 -176 -139c0 -80 39 -160 116 -241c27 35 55 70 82 105c49 47 115 72 198 73h11c79 0 142 -15 190 -45c65 -39 98 -99 98 -179c0 -90 -37 -157 -110 -202
c-55 -33 -118 -50 -191 -50c-114 0 -231 51 -352 154c-55 47 -102 108 -143 184s-61 152 -61 227c0 41 7 79 20 113c43 105 127 158 252 158h418v204h-826v160h1200v-160h-212v-362h-514z" />
    <glyph glyph-name="quotesingle" unicode="'" horiz-adv-x="500" 
d="M278 886h-46c-49 230 -74 369 -74 418c0 27 10 47 30 62s43 22 68 22c24 0 46 -7 66 -22s30 -35 30 -62c0 -66 -25 -205 -74 -418z" />
    <glyph glyph-name="parenleft" unicode="(" horiz-adv-x="772" 
d="M706 1426c-123 -87 -210 -172 -262 -254c-89 -140 -134 -327 -134 -560c0 -182 17 -330 50 -443c59 -205 175 -356 346 -455l-28 -34c-169 80 -306 206 -410 377s-156 349 -156 533s50 351 150 502c101 150 241 273 422 370z" />
    <glyph glyph-name="parenright" unicode=")" horiz-adv-x="772" 
d="M70 1426l22 36c181 -97 322 -220 422 -371c100 -150 150 -317 150 -501s-52 -362 -156 -533s-241 -297 -410 -377l-28 34c171 99 287 250 347 455c33 113 49 261 49 443c0 233 -44 420 -133 560c-53 82 -140 167 -263 254z" />
    <glyph glyph-name="asterisk" unicode="*" horiz-adv-x="802" 
d="M390 1062c-31 87 -47 159 -47 216c0 56 19 84 57 84c39 0 58 -28 58 -84s-15 -128 -46 -216c97 109 171 164 222 164c19 0 33 -6 40 -19s11 -23 11 -31c0 -35 -39 -66 -118 -94c-79 -29 -125 -44 -138 -45c171 -37 256 -82 256 -137c0 -9 -3 -19 -11 -32
c-6 -13 -19 -19 -38 -19c-51 0 -125 55 -224 165c31 -86 46 -156 46 -212c0 -54 -19 -82 -58 -82c-38 0 -57 28 -57 83s16 126 47 211c-101 -109 -176 -163 -225 -163c-17 0 -29 6 -37 19c-6 13 -10 24 -10 33c0 57 87 102 260 135c-173 33 -260 78 -260 134c0 9 4 20 11 34
c7 12 20 19 38 19c51 0 125 -54 223 -163z" />
    <glyph glyph-name="plus" unicode="+" horiz-adv-x="1304" 
d="M1178 528h-456v-468h-162v468h-458v142h458v472h162v-472h456v-142z" />
    <glyph glyph-name="comma" unicode="," horiz-adv-x="700" 
d="M130 108c0 4 0 8 -1 12c0 35 13 63 39 83c29 22 62 33 102 33c38 0 75 -13 108 -39c49 -39 74 -97 74 -175s-32 -152 -94 -222c-64 -69 -119 -112 -166 -128l-20 44c55 36 98 78 130 127c30 49 46 84 46 107s-3 36 -10 40c3 4 -15 8 -54 11c-98 8 -149 44 -154 107z" />
    <glyph glyph-name="hyphen" unicode="-" horiz-adv-x="1048" 
d="M884 524h-772v154h772v-154z" />
    <glyph glyph-name="hyphen" unicode="&#x2010;" horiz-adv-x="1048" 
d="M884 524h-772v154h772v-154z" />
    <glyph glyph-name="period" unicode="." horiz-adv-x="580" 
d="M290 232c35 0 66 -13 92 -39c25 -26 38 -58 38 -95s-14 -67 -43 -90s-58 -34 -87 -34s-58 11 -86 33s-42 52 -42 91s12 71 38 96c24 25 55 38 90 38z" />
    <glyph glyph-name="slash" unicode="/" horiz-adv-x="644" 
d="M666 1410l-530 -1440h-156l530 1440h156z" />
    <glyph glyph-name="zero" unicode="0" horiz-adv-x="1280" 
d="M44 621c0 151 54 279 160 387c108 106 236 160 387 160s279 -54 387 -160c106 -108 160 -236 160 -387s-54 -279 -160 -387c-108 -106 -236 -160 -387 -160s-279 54 -387 160c-106 108 -160 236 -160 387zM204 621c0 -107 38 -198 114 -273c75 -76 166 -114 273 -114
s198 38 273 114c76 75 114 166 114 273s-38 198 -114 273c-75 76 -166 114 -273 114s-198 -38 -273 -114c-76 -75 -114 -166 -114 -273z" />
    <glyph glyph-name="one" unicode="1" horiz-adv-x="1040" 
d="M580 1092c-26 8 -73 12 -141 12c-69 0 -125 -16 -169 -47c-43 -31 -65 -71 -64 -120c0 -53 23 -96 70 -127c45 -31 95 -46 150 -46c54 0 109 12 164 35c73 31 110 74 110 129v6c-4 81 -44 134 -120 158zM474 1266c267 -8 401 -133 401 -374c0 -11 0 -22 -1 -34
c-2 -35 -6 -94 -12 -179c-7 -85 -10 -180 -10 -285c0 -199 38 -345 114 -438c2 -8 3 -15 3 -22c0 -27 -13 -40 -39 -40c-43 0 -88 34 -134 101c-56 84 -92 198 -108 341c-4 39 -6 86 -6 143s2 123 6 199c-83 -41 -162 -64 -238 -68c-11 -1 -23 -1 -34 -1
c-94 1 -178 26 -251 75c-82 56 -123 135 -123 236c0 102 32 183 95 244c71 68 174 102 310 102h27z" />
    <glyph glyph-name="two" unicode="2" horiz-adv-x="1196" 
d="M492 1252c13 1 25 1 36 1c164 0 287 -39 368 -116c87 -83 130 -197 130 -343s-39 -263 -118 -351c-67 -75 -169 -137 -308 -185c31 -25 88 -66 171 -122c41 -27 61 -51 61 -72c0 -7 -1 -14 -4 -22c-7 -23 -24 -35 -48 -35c-26 0 -83 24 -174 71s-160 76 -208 86
c-81 14 -162 28 -243 41c-80 19 -122 53 -125 101v11c0 37 13 66 38 89c28 25 62 39 101 40h6c38 0 79 -11 122 -34c45 -24 88 -36 127 -36c97 0 191 30 281 89c112 75 168 176 168 303c0 8 0 16 -1 24c-7 117 -40 196 -98 238c-60 40 -167 63 -324 68h-17
c-63 0 -129 -10 -200 -29c-77 -21 -122 -32 -133 -32c-27 0 -46 14 -58 41c-6 13 -9 26 -9 38c0 81 153 126 459 136z" />
    <glyph glyph-name="three" unicode="3" horiz-adv-x="1212" 
d="M251 1228c87 15 187 22 303 22c114 0 224 -25 327 -76c119 -59 179 -137 179 -234l-122 -218c0 -3 16 -23 47 -60c32 -37 50 -84 53 -140v-13c0 -135 -109 -236 -326 -303c-1 -1 -2 -3 -2 -6s42 -19 126 -48c85 -30 127 -62 127 -96c0 -5 -1 -11 -3 -16
c-8 -23 -33 -34 -74 -34s-108 16 -200 47s-181 62 -268 93c-79 21 -158 41 -237 62c-94 32 -141 76 -141 132v9c5 60 46 90 122 90c59 0 118 -23 178 -69c60 -47 126 -70 197 -70c23 0 59 8 109 25s87 31 111 43c79 39 119 84 119 135c0 7 -1 13 -2 19
c-16 86 -74 129 -174 129c-25 0 -78 -5 -158 -15c-81 -10 -140 -15 -178 -15c-155 0 -232 32 -232 96c0 32 22 59 65 80c44 21 92 32 145 32s114 -5 184 -15c69 -11 122 -16 159 -16c142 0 213 49 213 147c0 102 -147 153 -440 153c-29 0 -82 -8 -160 -24
c-76 -16 -131 -24 -162 -24c-52 0 -83 16 -92 48c-2 6 -3 12 -3 18c0 52 70 89 210 112z" />
    <glyph glyph-name="four" unicode="4" horiz-adv-x="1112" 
d="M685 469c-35 19 -95 29 -180 29s-147 -11 -185 -34c-48 -28 -72 -79 -72 -154c0 -108 85 -162 255 -162s255 54 255 162c0 79 -24 132 -73 159zM206 876c0 -63 24 -118 74 -167c48 -49 119 -73 211 -73s167 26 223 76c58 52 86 108 86 172c0 62 -27 113 -81 151
c-36 25 -74 40 -115 43v156c135 -21 229 -60 282 -114c52 -56 78 -137 78 -244c0 -59 -13 -110 -40 -152c-11 -18 -34 -43 -66 -74c-34 -32 -50 -59 -50 -80c0 -5 11 -19 34 -42c55 -57 82 -132 82 -224c0 -94 -40 -168 -121 -223s-181 -83 -300 -83s-218 27 -297 82
s-118 131 -118 230c0 55 8 97 24 127s36 57 59 81c23 23 35 43 35 58s-16 39 -50 70c-32 32 -59 64 -80 96c-20 33 -30 80 -30 142c0 97 31 176 93 236c62 59 146 97 251 114v-156c-123 -31 -184 -98 -184 -202z" />
    <glyph glyph-name="five" unicode="5" horiz-adv-x="1140" 
d="M960 0h-153v308c-29 -27 -73 -52 -132 -76s-114 -36 -164 -35c-124 0 -233 33 -328 98c-62 43 -104 85 -126 127c2 7 24 71 67 192s66 194 70 219c4 24 6 50 7 77c-1 28 -12 59 -33 94s-56 52 -103 52h-49v142h150c49 0 93 -34 130 -102s56 -137 55 -207
c0 -15 -1 -30 -3 -43c-23 -124 -67 -255 -132 -393c86 -70 199 -105 340 -105c32 0 78 16 138 48s98 59 113 82v720h153v-1198z" />
    <glyph glyph-name="six" unicode="6" horiz-adv-x="1008" 
d="M634 474l-222 17c-124 0 -191 -56 -200 -167c-1 -10 -1 -20 -1 -29c0 -73 28 -119 85 -138c29 -10 93 -15 194 -15h256c34 0 57 -2 69 -5c24 -8 37 -25 39 -51v-9c0 -53 -36 -79 -108 -79h-416c-78 0 -144 30 -196 92c-54 60 -80 137 -80 228c0 65 17 117 52 157
c33 38 50 72 50 102v5c-1 9 -18 40 -54 93c-34 53 -52 117 -52 193s31 137 92 182c60 45 127 73 202 82c43 5 84 8 123 8c27 0 53 -1 77 -4c1 1 2 2 2 5s-14 23 -42 60c-27 37 -41 66 -42 85v12c0 88 29 154 86 198c48 37 104 55 168 55c63 0 115 -7 155 -21
c40 -15 60 -30 60 -45c0 -8 -6 -15 -19 -21c-197 0 -296 -47 -296 -140c0 -30 4 -53 12 -68s29 -47 62 -96c19 -28 51 -52 95 -72c42 -19 63 -37 63 -56c0 -68 -28 -102 -84 -102c-11 0 -75 20 -192 59c-33 11 -79 17 -136 17s-111 -16 -162 -49c-48 -31 -72 -69 -72 -114
v-7c7 -137 76 -205 207 -205c26 0 64 5 114 17c50 10 94 16 133 16c38 0 75 -8 112 -25c36 -17 55 -37 56 -61v-6c0 -65 -63 -98 -190 -98z" />
    <glyph glyph-name="seven" unicode="7" horiz-adv-x="1238" 
d="M946 1145c93 -83 140 -186 142 -309v-14c0 -117 -25 -214 -74 -290c-51 -80 -109 -143 -172 -188c-99 -71 -194 -126 -283 -165s-181 -78 -275 -117c-93 -40 -160 -60 -198 -60c-40 0 -59 12 -59 36c0 27 68 72 203 135c136 63 227 107 274 129c46 24 106 60 178 112
c74 50 128 99 164 145s61 115 76 207c3 21 5 41 5 60c0 81 -28 144 -83 189s-134 69 -237 72h-5c-67 0 -127 -41 -182 -122c-33 -49 -50 -74 -52 -77c-25 -30 -49 -45 -74 -45c-63 0 -94 36 -94 109c0 72 49 138 146 199c98 61 194 91 289 91c135 0 239 -32 311 -97z" />
    <glyph glyph-name="eight" unicode="8" horiz-adv-x="1286" 
d="M1021 -5l-111 3c-308 0 -529 141 -664 422c-47 98 -70 219 -70 362c0 35 1 67 4 94h-102c-39 0 -59 23 -59 68c0 29 7 60 23 95c14 35 31 61 50 79c61 58 127 87 199 87c45 0 67 -20 67 -59v-116h764v-154h-792c-3 -23 -4 -50 -4 -80c0 -131 25 -243 76 -334
c76 -137 165 -228 268 -273c41 -18 105 -30 194 -37c57 1 113 2 170 3c59 -5 88 -37 88 -97c0 -42 -34 -63 -101 -63z" />
    <glyph glyph-name="nine" unicode="9" horiz-adv-x="1272" 
d="M1067 874l-57 2h-672c-3 -23 -4 -50 -4 -81c0 -131 25 -242 76 -333c77 -137 166 -229 269 -274c55 -25 132 -37 229 -37c17 0 34 0 51 1c42 1 73 2 93 2s38 -6 54 -18s24 -37 24 -74c0 -45 -34 -67 -101 -67l-111 3c-307 0 -527 141 -662 422c-48 100 -72 223 -72 369
c0 33 1 62 4 87h-102c-39 0 -59 23 -59 68c0 28 7 60 23 94c14 36 31 62 50 80c60 58 126 87 198 87c45 0 68 -20 68 -59v-116h416c-65 54 -98 124 -98 210v8c2 89 36 156 102 199c53 34 119 51 198 51c43 0 80 -5 112 -15s48 -21 48 -34c0 -7 -6 -13 -18 -19
c-55 -4 -102 -12 -142 -23c-96 -27 -147 -68 -154 -125c-1 -10 -2 -26 -2 -49s6 -45 20 -68c12 -23 36 -57 70 -103c19 -26 57 -49 112 -68c55 -20 85 -36 90 -49c4 -13 6 -24 6 -33c0 -25 -20 -38 -59 -38z" />
    <glyph glyph-name="colon" unicode=":" horiz-adv-x="800" 
d="M456 232c35 0 66 -13 92 -39c25 -26 38 -58 38 -95s-14 -67 -43 -90s-58 -34 -87 -34s-58 11 -86 33s-42 52 -42 91s12 71 38 96c24 25 55 38 90 38zM456 1064c35 0 66 -13 92 -39c25 -26 38 -58 38 -95s-14 -67 -43 -89s-58 -33 -87 -33s-58 11 -86 32s-42 51 -42 90
s12 71 38 96c24 25 55 38 90 38z" />
    <glyph glyph-name="semicolon" unicode=";" horiz-adv-x="700" 
d="M140 108c0 4 0 8 -1 12c0 35 13 63 39 83c29 22 62 33 102 33c38 0 75 -13 108 -39c49 -39 74 -97 74 -175s-32 -152 -94 -222c-64 -69 -119 -112 -166 -128l-20 44c55 36 98 78 130 127c30 49 46 84 46 107s-3 36 -10 40c3 4 -15 8 -54 11c-98 8 -149 44 -154 107z
M326 1064c35 0 66 -13 92 -39c25 -26 38 -58 38 -95s-14 -67 -43 -89s-58 -33 -87 -33c-30 0 -59 11 -86 32c-28 21 -42 51 -42 90c0 38 12 70 38 96c24 25 55 38 90 38z" />
    <glyph glyph-name="less" unicode="&#x3c;" horiz-adv-x="2168" 
d="M1133 550c76 -264 212 -396 408 -396h10c61 3 112 19 152 48c37 27 55 65 55 113v12c-3 54 -33 107 -88 157c-55 52 -108 77 -159 77c-5 0 -21 -2 -47 -5c-26 -4 -136 -6 -331 -6zM1094 1038c0 -125 5 -236 14 -332c245 0 389 8 431 23c82 29 144 69 187 119
c43 52 80 115 109 190h-741zM181 944c1 -57 20 -100 56 -130s81 -45 134 -45c53 1 110 16 169 45c61 31 91 75 91 134c-1 117 -76 175 -227 175c-149 0 -224 -57 -223 -171v-8zM762 395c0 -119 19 -225 57 -318l70 -129c5 -7 7 -14 7 -21c0 -21 -13 -31 -38 -31
c-26 0 -52 10 -78 29c-63 47 -110 116 -140 209c-32 93 -47 180 -47 261s7 178 22 290c-80 -47 -163 -70 -251 -70c-86 0 -165 28 -236 85s-106 135 -106 235c0 230 126 345 377 345h26c132 -4 227 -36 284 -95s86 -149 86 -271c0 -52 -4 -141 -11 -266
c-15 -163 -22 -248 -22 -253zM1902 1405c-165 104 -302 156 -412 156s-204 -46 -283 -139c-54 -65 -90 -139 -109 -224h957v-160h-60c-32 -97 -69 -175 -110 -234s-102 -112 -182 -160c142 -85 213 -191 213 -317c0 -91 -29 -169 -88 -233s-149 -96 -269 -96
c-195 0 -346 76 -453 227c-88 125 -141 290 -159 497c-7 72 -10 160 -10 263v53h-57v160h58c13 143 70 266 173 367c102 102 226 153 372 153s321 -65 525 -195c3 -2 25 -18 66 -49c40 -31 66 -50 77 -58v-208c-71 71 -154 136 -249 197z" />
    <glyph glyph-name="equal" unicode="=" horiz-adv-x="1244" 
d="M1068 286h-926v154h926v-154zM1068 758h-926v158h926v-158z" />
    <glyph glyph-name="greater" unicode="&#x3e;" horiz-adv-x="1182" 
d="M321 1192c-59 -37 -118 -56 -177 -56s-119 27 -178 82v182c6 -2 16 -7 29 -15c86 -55 140 -83 163 -83h2c31 3 180 121 445 352c75 64 148 113 217 148c70 35 148 52 234 52c133 0 252 -37 357 -112c105 -74 180 -172 223 -293c21 -61 32 -102 32 -123
c0 -47 -20 -70 -61 -70c-31 0 -58 25 -82 75l-51 102c-38 82 -94 148 -169 197c-74 49 -161 73 -262 73c-100 0 -211 -50 -334 -150c-41 -41 -115 -107 -220 -200c-38 -42 -94 -96 -168 -161z" />
    <glyph glyph-name="question" unicode="?" horiz-adv-x="1200" 
d="M696 212c37 0 69 -14 96 -41c28 -27 42 -60 42 -98s-14 -68 -44 -89c-28 -21 -60 -32 -92 -32c-34 0 -64 10 -91 31s-41 51 -41 91c0 41 12 74 38 100c24 25 55 38 92 38zM340 1092c0 96 35 169 105 220s140 76 211 76c70 0 135 -12 194 -36c59 -23 102 -51 128 -82
c59 -71 88 -145 88 -224c0 -42 -30 -97 -90 -164l-136 -142c-47 -56 -79 -126 -96 -210l-34 -242h-44c0 39 -4 94 -14 166c-8 72 -13 115 -13 128c0 14 0 24 1 30c10 75 28 134 54 176c5 9 42 60 111 153c38 51 57 94 57 127c0 173 -66 260 -198 260c-46 0 -94 -15 -144 -46
c-51 -30 -76 -61 -76 -94c0 -11 21 -37 62 -77c42 -40 63 -73 63 -101c0 -26 -23 -52 -69 -76c-27 -14 -51 -21 -72 -21c-59 0 -88 60 -88 179z" />
    <glyph glyph-name="at" unicode="@" 
d="M-506 -56c20 -44 54 -85 102 -122s80 -61 96 -72s33 -16 52 -17s39 -8 62 -19c59 -30 88 -76 88 -137c0 -46 -13 -69 -40 -69c-5 0 -21 6 -48 19s-64 30 -111 52c-56 34 -115 89 -176 164s-102 142 -121 201h96z" />
    <glyph glyph-name="A" unicode="A" horiz-adv-x="1430" 
d="M1270 1038v-1038h-162v638c-101 -45 -170 -95 -207 -151c-24 -36 -53 -114 -87 -235c-27 -94 -76 -141 -148 -141c-17 0 -36 3 -56 9c-51 15 -77 46 -77 92c0 61 35 131 106 208c34 37 60 71 77 102s26 61 26 92c0 65 -9 129 -28 190c-18 61 -33 93 -46 96h-3
c-23 0 -85 -55 -186 -164c-105 -113 -161 -209 -169 -288c-5 -52 -22 -94 -51 -128c-29 -32 -63 -49 -103 -49c-12 0 -24 2 -36 5c-58 15 -87 51 -87 106c0 31 9 64 27 100c26 38 52 77 79 116c25 37 38 84 38 139c-1 3 -1 7 -1 10c-1 60 -2 97 -4 111c0 14 -6 39 -16 76
c-19 69 -47 104 -86 104h-94v160h160c29 0 58 -17 88 -52c55 -63 87 -144 96 -245c3 -35 5 -70 8 -105c45 47 109 110 190 188c36 31 70 60 102 86c29 24 53 36 70 36h4c43 -5 93 -74 148 -208c13 -32 24 -75 33 -128c9 -54 14 -85 17 -92c35 23 71 48 110 74
c38 26 73 43 106 50v396h374v-160h-212z" />
    <glyph glyph-name="B" unicode="B" horiz-adv-x="1108" 
d="M370 730c-118 0 -177 -35 -177 -104c0 -10 2 -21 5 -32c14 -51 64 -76 151 -76c49 0 86 7 111 22c24 15 60 45 108 90c-53 67 -119 100 -198 100zM1158 1038h-206l-32 -186c-18 -52 -58 -123 -120 -212c76 -63 114 -151 114 -262c0 -112 -46 -203 -138 -273
s-201 -105 -328 -105c-65 0 -140 22 -225 65c-49 25 -92 51 -129 81c-37 28 -55 49 -55 62c-1 3 2 5 7 8c1 0 2 0 3 1c13 0 69 -12 169 -36c109 -26 177 -39 204 -39c100 0 179 22 237 65s87 102 87 175c0 35 -22 83 -66 144c-95 -95 -196 -145 -303 -148h-21
c-97 0 -172 22 -225 66c-57 48 -86 107 -86 178c1 71 32 132 93 185c53 46 122 69 206 69c13 0 26 -1 40 -2c134 -10 229 -51 284 -124c22 26 53 77 94 154c15 38 23 83 26 134h-804v160h1174v-160z" />
    <glyph glyph-name="C" unicode="C" horiz-adv-x="1108" 
d="M424 328c-27 5 -54 8 -81 8c-102 0 -153 -38 -153 -115c0 -57 50 -85 151 -85c28 0 56 2 83 6v186zM568 332v-186c24 -3 49 -5 75 -5c106 0 159 29 159 87c0 75 -50 113 -150 113c-28 0 -56 -3 -84 -9zM1144 1038h-186v-366h-686c-42 0 -63 -23 -63 -70
c0 -15 3 -33 9 -52c17 -56 41 -84 73 -84h3c29 3 99 7 212 12h27c172 0 287 -18 345 -55c49 -31 76 -90 80 -179v-17c0 -79 -29 -136 -88 -171c-63 -37 -186 -56 -368 -56c-184 0 -308 14 -375 42c-70 29 -105 93 -105 190c0 27 11 60 34 102c23 40 34 72 34 94
c0 5 -8 31 -24 80c-17 49 -25 92 -25 130c0 37 17 79 51 124c35 45 72 68 112 68h594v208h-822v160h1168v-160z" />
    <glyph glyph-name="D" unicode="D" horiz-adv-x="1102" 
d="M780 1038h-490c14 -80 21 -151 21 -212c0 -29 -2 -57 -5 -82c-10 -77 -41 -173 -92 -288c94 -76 205 -114 334 -114c41 0 119 34 232 102v594zM1148 1038h-206v-1038h-162v262c-105 -56 -197 -84 -276 -84c-124 0 -238 36 -343 107c-78 53 -124 99 -137 137
c24 54 60 157 107 310c9 37 13 79 13 125c0 54 -6 114 -18 181h-142v160h1164v-160z" />
    <glyph glyph-name="E" unicode="E" horiz-adv-x="1274" 
d="M1150 1038c-60 -195 -151 -328 -274 -398c121 -73 182 -177 182 -312c0 -89 -29 -163 -86 -224c-65 -71 -157 -106 -276 -106c-190 0 -338 75 -444 224c-89 125 -143 292 -162 502c-6 66 -9 141 -9 226c0 28 0 57 1 88h-104v160h110c67 362 251 553 552 574
c35 3 75 4 122 4c288 0 432 -37 432 -112c0 -41 -95 -62 -285 -62c-33 0 -82 1 -145 2c-45 1 -80 2 -104 2h-24c-134 -2 -238 -71 -311 -206c-30 -56 -53 -123 -69 -202h1046v-160h-152zM668 553c-5 0 -21 -2 -48 -5c-27 -4 -135 -6 -326 -6c16 -75 40 -140 72 -194
c73 -125 177 -188 312 -188h10c64 1 116 17 156 47c37 28 56 65 55 111v12c-3 52 -31 102 -81 150c-52 49 -101 73 -150 73zM252 1038c-1 -27 -2 -56 -2 -88c0 -69 3 -150 8 -242c33 -1 63 -1 92 -1c188 0 303 8 346 23c78 28 139 69 184 122s80 115 106 186h-734z" />
    <glyph glyph-name="F" unicode="F" horiz-adv-x="1140" 
d="M842 225c0 71 -42 107 -127 107c-21 0 -40 -2 -57 -6c-45 -11 -93 -51 -144 -120c31 -19 62 -39 93 -58c26 -13 57 -19 93 -19c7 0 13 0 20 1c81 5 122 36 122 95zM1180 1038h-200v-424h-652c-1 -11 -2 -22 -2 -35c0 -35 7 -75 20 -119c17 -59 50 -117 98 -174
c20 25 43 52 69 82c26 31 59 53 98 68c39 14 75 21 107 21c31 0 62 -3 94 -11c30 -6 65 -26 102 -58c46 -39 69 -96 69 -169s-27 -129 -79 -166c-54 -37 -118 -56 -194 -56c-26 -1 -64 4 -113 13c-123 23 -236 107 -341 252c-61 85 -92 203 -92 352h-104
c-38 0 -57 19 -57 56c0 38 16 85 47 142c14 25 42 48 86 69c42 21 82 31 117 31s53 -13 53 -38v-102h512v266h-838v160h1200v-160z" />
    <glyph glyph-name="G" unicode="G" horiz-adv-x="1300" 
d="M1338 1038h-196v-1038h-160v234c-65 -40 -119 -60 -162 -60c-60 0 -133 44 -218 132c-37 -28 -75 -56 -113 -84c-37 -23 -80 -34 -129 -34c-79 0 -159 36 -242 107c-75 65 -112 111 -111 140c0 3 0 6 1 9c-2 1 -3 4 -3 10c0 4 24 64 73 179c48 115 72 209 72 282
s-31 114 -94 121h-80v162h150c22 0 49 -12 81 -36c31 -24 58 -57 79 -100c19 -37 28 -85 28 -142v-26c-3 -69 -47 -214 -132 -434c71 -75 130 -112 176 -112h2c119 4 179 79 179 225c0 65 -7 127 -21 184c-15 57 -22 97 -22 119c0 60 16 116 46 168c32 52 61 78 90 78
c28 0 54 -26 78 -77c25 -51 37 -98 37 -141c0 -42 -4 -74 -11 -96c-32 -100 -48 -185 -48 -254c0 -125 52 -197 156 -216c7 -1 14 -2 21 -2c29 0 54 11 77 34c27 28 40 61 40 100v728h356v-160z" />
    <glyph glyph-name="H" unicode="H" 
d="M-168 -50v-230c0 -89 -23 -163 -70 -220c-46 -58 -106 -87 -180 -87c-75 0 -146 39 -215 119c-69 78 -103 153 -103 222c0 70 27 119 80 148c17 9 40 14 69 14c69 0 103 -13 103 -38c0 -12 -19 -23 -56 -33c-38 -10 -60 -23 -67 -38s-10 -30 -10 -44
c0 -37 19 -76 57 -117c39 -41 68 -69 88 -83c17 -12 36 -18 59 -18c5 0 9 0 13 1c61 5 92 63 92 172v232h140z" />
    <glyph glyph-name="I" unicode="I" horiz-adv-x="572" 
d="M606 1038h-298v-1040h-160v1040h-164v160h164v43c0 110 -5 181 -14 213c-27 92 -87 138 -180 138c-109 0 -170 -55 -184 -166l-8 -78h-148c-2 16 -3 32 -3 48c0 50 9 99 27 148c23 64 62 113 116 148c53 35 109 52 168 52c153 0 258 -46 314 -139c49 -81 74 -195 74 -342
c0 -21 -1 -42 -2 -65h298v-160z" />
    <glyph glyph-name="J" unicode="J" horiz-adv-x="1140" 
d="M808 1038h-538c31 -57 74 -106 130 -148c57 -43 115 -64 174 -64s111 23 156 70c8 8 34 55 78 142zM1175 1038h-195c-21 -83 -46 -144 -76 -182c-28 -37 -61 -73 -96 -106c110 -67 165 -156 165 -265c0 -121 -49 -214 -147 -281c-37 -25 -76 -42 -118 -48
c-40 -8 -78 -13 -112 -18c1 -3 12 -18 33 -46c21 -27 31 -50 31 -67s-11 -26 -33 -26s-51 11 -89 31c-36 22 -65 45 -86 70c-31 39 -77 66 -140 82c-62 15 -95 25 -100 30c-29 25 -43 53 -43 85s12 60 35 85c23 24 48 36 74 36c25 0 47 -8 64 -24c83 -75 144 -113 185 -113
c9 0 15 2 19 5c22 1 67 12 136 32c75 31 115 76 120 137c1 5 1 11 0 16c0 54 -24 98 -71 131c-45 32 -90 48 -136 47c-7 0 -15 0 -23 -1c-111 -21 -227 -43 -348 -66h-5c-21 0 -53 14 -97 42c-48 31 -72 56 -73 76c0 13 11 21 33 24c165 16 247 29 247 38c0 1 0 1 -1 2
c3 1 4 1 5 2l-57 34c-46 27 -81 55 -104 82c-24 28 -44 60 -60 97l-26 59h-100v160h1189v-160z" />
    <glyph glyph-name="K" unicode="K" horiz-adv-x="1112" 
d="M952 1038v-1038h-162v290c-99 -61 -192 -92 -278 -92c-122 0 -229 33 -321 98c-51 37 -91 78 -121 124l56 136c41 112 61 213 61 302s-15 149 -45 180h-160v160h202c66 0 114 -53 144 -160c11 -37 16 -92 16 -164h446v324h364v-160h-202zM790 712h-446
c-3 -29 -14 -73 -34 -132c-18 -58 -35 -99 -50 -122c37 -30 65 -49 82 -58c54 -25 125 -38 214 -38c43 0 121 34 234 102v248z" />
    <glyph glyph-name="L" unicode="L" horiz-adv-x="1340" 
d="M926 1038h-396l190 -368h8zM1110 1038l-136 -246c189 -72 284 -191 284 -356s-50 -285 -149 -358c-47 -35 -120 -61 -217 -78v156c55 14 96 32 123 54c58 49 87 125 87 230c0 91 -70 161 -210 208l-160 -274h-12l-162 274c-136 -47 -204 -117 -204 -208
c0 -105 29 -181 87 -230c27 -22 68 -40 123 -54v-156c-97 17 -170 43 -217 78c-99 73 -149 193 -149 358s93 284 278 356l-134 246h-350v160h1376v-160h-258zM20 142c20 20 43 30 70 30c25 0 47 -10 66 -30c20 -22 30 -47 30 -75c0 -23 -9 -44 -28 -63
c-20 -19 -43 -29 -70 -32c-27 1 -49 11 -68 31c-19 21 -29 45 -28 73c-1 25 9 47 28 66z" />
    <glyph glyph-name="M" unicode="M" 
d="M-244 1740c56 0 97 -6 122 -18s54 -35 86 -68c31 -32 47 -78 47 -138s-25 -113 -75 -160c-27 -25 -47 -38 -60 -38s-20 4 -21 13c0 4 1 8 3 13c35 63 52 112 52 148s-14 66 -42 91c-27 25 -65 37 -114 37s-87 -12 -114 -36c-27 -25 -40 -56 -40 -92s17 -85 52 -148
c2 -5 3 -9 3 -13c-1 -9 -8 -13 -21 -13s-33 13 -60 38c-50 47 -75 100 -75 160s18 109 55 146c49 52 117 78 202 78z" />
    <glyph glyph-name="N" unicode="N" horiz-adv-x="246" 
d="M29 1566c26 25 57 38 91 38c36 0 66 -13 92 -38c25 -26 38 -56 38 -92c0 -34 -13 -65 -38 -91c-26 -26 -56 -39 -92 -39c-34 0 -65 13 -91 39s-39 57 -39 91c0 36 13 66 39 92zM286 1038h-310v160h310v-160z" />
    <glyph glyph-name="O" unicode="O" 
d="M-661 1530l-50 -2c-30 0 -67 7 -110 22c-103 34 -155 96 -155 187c0 63 9 96 28 97h1c19 0 44 -37 75 -112c41 -41 96 -62 164 -62c67 0 126 7 177 22s104 22 161 22c103 0 170 -47 202 -142c6 -17 9 -43 9 -76s-7 -64 -21 -91c-15 -27 -33 -47 -54 -58s-39 -17 -54 -17
s-22 4 -22 11c0 3 1 5 2 7c29 48 43 85 43 112c0 3 0 7 -1 10c-11 75 -50 112 -116 112h-4c-30 -1 -57 -12 -81 -34c-24 -23 -37 -49 -40 -78c-1 -7 -1 -13 -1 -18c0 -43 13 -74 38 -94c4 -7 6 -12 6 -17c0 -11 -11 -16 -34 -16s-41 5 -56 16s-33 30 -56 57
c-9 20 -14 58 -16 114c-3 19 -14 28 -35 28z" />
    <glyph glyph-name="P" unicode="P" horiz-adv-x="1140" 
d="M636 344c-99 -22 -170 -65 -212 -128c41 -23 71 -38 88 -45s46 -14 87 -19c13 -1 27 -2 41 -2c29 0 61 3 96 10c51 11 78 31 82 62c1 8 2 16 2 23c0 70 -43 105 -130 105c-19 0 -37 -2 -54 -6zM1186 1038h-214v-318h-574c-74 0 -127 -23 -158 -68
c-21 -31 -32 -66 -32 -108c0 -40 15 -85 45 -132c17 -21 42 -54 75 -98c93 89 142 135 149 140c52 35 120 53 203 53c84 0 155 -26 214 -78c56 -50 84 -111 84 -184v-10c-3 -77 -40 -137 -112 -180c-61 -37 -132 -55 -214 -55c-28 0 -71 6 -128 18c-57 13 -103 27 -137 44
c-111 54 -204 145 -279 274c-42 72 -63 143 -63 212s15 127 44 173s58 79 87 99s73 38 134 54h494v164h-828v160h1210v-160z" />
    <glyph glyph-name="Q" unicode="Q" horiz-adv-x="1112" 
d="M790 596h-514c0 -85 -9 -161 -28 -226c5 -16 30 -36 75 -60c45 -23 95 -37 151 -42c7 -1 15 -1 23 -1c87 0 184 38 293 115v214zM790 1038h-504c9 -143 14 -234 14 -275v-7h490v282zM1158 1038h-206v-1038h-162v208c-101 -69 -198 -103 -289 -103c-9 0 -18 0 -27 1
c-163 12 -298 72 -406 180c41 201 62 383 62 547c0 68 -3 136 -10 205h-138v160h1176v-160z" />
    <glyph glyph-name="R" unicode="R" 
d="M-52 -431c0 -14 -7 -24 -22 -30c-2 -1 -4 -1 -7 -1c-15 0 -36 13 -63 40c-33 32 -64 64 -95 95c-39 36 -75 59 -106 68c-43 -54 -88 -81 -135 -81c-32 0 -60 12 -84 36c-24 25 -36 53 -36 84s10 60 30 88c21 26 53 40 98 40s86 -7 123 -20c7 12 15 33 26 64h119
c-14 -40 -32 -79 -53 -117c34 -23 77 -67 128 -131c51 -63 77 -108 77 -135z" />
    <glyph glyph-name="S" unicode="S" horiz-adv-x="1140" 
d="M818 1038h-510c28 -110 42 -210 42 -299c0 -27 -1 -54 -4 -81h472v380zM980 1038v-1038h-162v498h-480c-6 -62 -22 -160 -48 -294c-27 -97 -71 -146 -134 -146c-77 0 -116 41 -116 124c0 25 4 51 12 78c25 63 53 132 82 206s46 131 48 172c4 40 5 76 5 107s-5 75 -14 131
c-9 55 -18 109 -27 162h-162v160h1198v-160h-202zM500 207c21 19 45 29 72 29c1 0 1 0 1 1c26 0 48 -10 67 -30c19 -21 29 -45 30 -72c0 -27 -10 -50 -30 -69s-44 -29 -70 -29c-28 0 -51 10 -70 31c-20 20 -30 43 -31 70c0 27 10 50 31 69z" />
    <glyph glyph-name="T" unicode="T" horiz-adv-x="1140" 
d="M620 1038v-162c121 -17 220 -69 296 -156c77 -88 116 -195 117 -322c0 -124 -47 -222 -140 -294c-94 -72 -214 -108 -359 -108s-266 36 -362 108c-95 71 -142 169 -143 294c-1 127 38 235 117 322c77 87 177 139 298 156v162h-468v160h1202v-160h-558zM766 624
c-67 61 -146 92 -240 92c-92 0 -171 -30 -235 -91c-65 -61 -97 -136 -97 -224c0 -163 112 -245 337 -245s337 82 337 245c0 87 -34 162 -102 223z" />
    <glyph glyph-name="U" unicode="U" 
d="M-930 -384c124 -43 240 -64 346 -64c108 0 220 21 338 64v-148c-122 -40 -234 -61 -337 -64h-18c-99 0 -208 21 -329 64v148zM-930 -84c124 -45 240 -68 346 -68c108 0 220 23 338 68v-148c-116 -43 -227 -66 -333 -68h-13c-103 0 -215 23 -338 68v148z" />
    <glyph glyph-name="V" unicode="V" horiz-adv-x="1160" 
d="M1202 1038h-188c-8 -31 -28 -82 -60 -152c-35 -56 -72 -107 -112 -152c96 -64 144 -141 144 -231v-7c-2 -78 -16 -135 -42 -172c-26 -36 -89 -86 -188 -150c17 -20 35 -40 53 -60c27 -34 40 -62 40 -84c0 -21 -9 -32 -26 -32s-56 22 -115 66c-60 44 -97 67 -112 70
s-34 2 -58 -2c-27 -5 -53 -8 -80 -8c-61 0 -124 13 -190 38c33 -59 49 -100 49 -126c0 -24 -9 -37 -27 -37c-21 0 -47 17 -79 53c-32 34 -62 67 -89 98c-59 57 -88 115 -88 174c0 42 21 63 62 63c11 0 24 -2 38 -5c91 -63 221 -94 390 -94c65 0 131 18 198 54
c65 35 98 77 98 126c0 111 -57 167 -170 167c-30 0 -80 -5 -150 -14c-71 -10 -129 -16 -176 -19c-6 -1 -12 -1 -19 0c-41 0 -85 8 -132 25c-54 19 -81 47 -81 83c0 74 80 111 239 111c13 0 27 0 41 -1c32 -1 72 -7 121 -18c49 -10 83 -15 103 -15c100 0 182 84 246 251h-854
v160h1214v-160z" />
    <glyph glyph-name="W" unicode="W" horiz-adv-x="520" 
d="M139 1566c26 25 57 38 91 38c36 0 66 -13 92 -38c25 -26 38 -56 38 -92c0 -34 -13 -65 -38 -91c-26 -26 -56 -39 -92 -39c-34 0 -65 13 -91 39s-39 57 -39 91c0 36 13 66 39 92zM306 1038v-570h-156v570h-174v160h580v-160h-250z" />
    <glyph glyph-name="X" unicode="X" horiz-adv-x="1220" 
d="M532 435l-8 235h374v368h-624c9 -57 13 -114 13 -169c0 -42 -2 -83 -7 -123c-11 -95 -43 -205 -94 -332c27 -37 64 -70 112 -98c21 -13 56 -24 105 -34c49 -11 75 -16 78 -16c34 0 51 56 51 169zM1252 1038h-192v-1038h-162v510h-212c0 -177 -12 -298 -36 -362
c-11 -33 -28 -53 -52 -61c-11 -3 -25 -5 -42 -5c-53 0 -123 14 -208 44c-86 28 -147 55 -184 80c-61 41 -109 100 -144 176c25 81 55 194 90 340c11 71 16 135 16 190c0 48 -4 90 -12 126h-134v160h1272v-160z" />
    <glyph glyph-name="Y" unicode="Y" 
d="M-579 1756c109 -64 201 -156 278 -277s115 -205 115 -254c0 -8 0 -12 -1 -12c-1 -1 -68 28 -201 85c-167 71 -324 106 -473 107c-11 0 -26 0 -45 -1h-60s-39 5 -52 16c-13 10 -20 33 -20 69c1 47 52 71 154 71c57 0 116 -9 176 -26c62 -17 146 -57 254 -118
c106 -61 161 -91 165 -91c1 0 1 1 1 2c0 9 -19 35 -56 79c-41 48 -95 97 -160 148c-66 51 -128 85 -185 104s-102 28 -133 28c-32 0 -65 -4 -98 -14c-33 -8 -53 -13 -60 -13c-19 0 -34 13 -44 38c-4 10 -6 20 -6 30c0 31 17 57 52 77c35 21 79 31 134 31
c88 0 176 -26 265 -79z" />
    <glyph glyph-name="Z" unicode="Z" horiz-adv-x="1352" 
d="M668 624c-82 -3 -171 -7 -266 -14c-61 -19 -92 -65 -92 -138s26 -144 77 -211s111 -101 179 -101c50 0 84 27 102 82v382zM1192 1038v-1038h-158v1038h-206v-732c0 -105 -26 -182 -78 -232c-52 -49 -113 -74 -184 -74c-115 0 -214 51 -296 152c-84 102 -125 212 -125 330
s48 202 143 252c61 32 187 48 380 48v256h-684v160h1424v-160h-216zM9 162c20 20 43 30 70 30c26 0 48 -10 67 -30c20 -22 30 -47 30 -75c0 -23 -9 -44 -28 -63c-20 -19 -43 -29 -70 -32c-27 1 -50 11 -68 32c-20 20 -29 43 -28 70v7c0 23 9 43 27 61z" />
    <glyph glyph-name="bracketleft" unicode="[" horiz-adv-x="1200" 
d="M690 1198v-1218h-166v1218h166z" />
    <glyph glyph-name="backslash" unicode="\" horiz-adv-x="1120" 
d="M952 1038v-336h-608c-27 0 -56 -8 -86 -24c-29 -16 -44 -36 -44 -60c0 -23 11 -46 32 -68c21 -21 41 -32 58 -32h624v-158h-446c15 -57 31 -97 48 -121c18 -24 51 -47 100 -71c48 -22 97 -34 146 -34c50 0 101 9 152 28l-34 -120c-77 -31 -144 -47 -200 -47
c-17 0 -33 2 -46 5c-143 35 -258 141 -346 316c-5 10 -31 26 -76 48c-46 23 -82 47 -107 74c-50 53 -75 118 -75 197c0 116 73 194 218 233c-20 18 -45 43 -74 76c-17 27 -26 59 -26 94h-176v160h1174v-160h-208zM790 1038h-452c19 -54 40 -90 64 -108
c59 -45 109 -68 148 -68h240v176z" />
    <glyph glyph-name="bracketright" unicode="]" horiz-adv-x="1140" 
d="M838 1198v-1218h-166v1218h166zM458 1198v-1218h-166v1218h166z" />
    <glyph glyph-name="asciicircum" unicode="^" horiz-adv-x="1112" 
d="M952 1038v-1038h-162v290c-99 -61 -192 -92 -278 -92c-122 0 -229 33 -321 98c-51 37 -91 78 -121 124l56 136c41 112 61 213 61 302s-15 149 -45 180h-160v160h202c66 0 114 -53 144 -160c11 -37 16 -92 16 -164h446v324h364v-160h-202zM790 712h-446
c-3 -29 -14 -73 -34 -132c-18 -58 -35 -99 -50 -122c37 -30 65 -49 82 -58c54 -25 125 -38 214 -38c43 0 121 34 234 102v248zM51 172c17 23 39 35 68 35s53 -8 72 -25s29 -39 29 -66s-8 -52 -24 -73s-38 -32 -66 -32c-27 0 -51 7 -71 21c-22 19 -33 43 -33 71s8 51 25 69z
" />
    <glyph glyph-name="underscore" unicode="_" horiz-adv-x="1160" 
d="M1160 -8v-116h-1160v116h1160z" />
    <glyph glyph-name="grave" unicode="`" 
d="M30 1700c14 0 21 -27 21 -80c0 -54 -10 -101 -30 -140s-53 -75 -100 -108c-47 -32 -97 -48 -152 -48s-106 16 -153 48c-47 33 -81 69 -101 108s-30 86 -30 140c0 53 7 80 21 80c9 0 21 -22 36 -68c14 -44 29 -79 46 -104c35 -53 95 -80 180 -80s145 27 180 80
c17 25 32 60 46 104c15 46 27 68 36 68z" />
    <glyph glyph-name="a" unicode="a" horiz-adv-x="1262" 
d="M1150 1038c-60 -195 -151 -328 -274 -398c121 -73 182 -177 182 -312c0 -89 -29 -163 -86 -224c-65 -71 -157 -106 -276 -106c-190 0 -338 75 -444 224c-89 125 -143 292 -162 502c-6 66 -9 141 -9 226c0 28 0 57 1 88h-104v160h110v10c0 153 45 281 136 384
s220 154 387 154h10c172 -2 305 -54 399 -156c93 -102 140 -220 140 -353c0 -13 -1 -26 -2 -39h144v-160h-152zM668 553c-5 0 -21 -2 -48 -5c-27 -4 -135 -6 -326 -6c16 -75 40 -140 72 -194c73 -125 177 -188 312 -188h10c64 1 116 17 156 47c37 28 56 65 55 111v12
c-3 52 -31 102 -81 150c-52 49 -101 73 -150 73zM986 1038h-740l4 -158c1 -42 4 -99 8 -172c33 -1 63 -1 92 -1c188 0 303 8 346 23c78 28 139 69 184 122s80 115 106 186zM1002 1198c-3 75 -17 139 -42 192c-60 128 -170 193 -331 194c-2 0 -4 0 -6 1
c-157 0 -266 -64 -327 -192c-26 -54 -41 -119 -44 -195h750z" />
    <glyph glyph-name="b" unicode="b" horiz-adv-x="1090" 
d="M772 578h-280c-36 -17 -79 -46 -128 -86s-93 -81 -130 -124c96 -83 181 -124 256 -124s169 44 282 132v202zM772 1038h-496c9 -43 18 -78 27 -103s26 -56 52 -91c9 -12 56 -47 143 -104h274v298zM1130 1038h-200v-1038h-158v194c-47 -27 -93 -53 -140 -79
c-47 -22 -97 -33 -151 -33s-134 28 -241 84c-125 65 -188 129 -188 194c0 48 43 112 130 192c44 35 93 75 148 120c-76 62 -125 111 -146 146c-35 58 -58 131 -70 220h-130v160h1146v-160z" />
    <glyph glyph-name="c" unicode="c" horiz-adv-x="1146" 
d="M828 538h-476c4 -106 18 -188 42 -246c33 -79 91 -123 174 -130c15 -1 30 -2 44 -2c77 0 132 18 166 53c33 35 50 76 50 121v204zM1194 1038h-208v-700c0 -225 -119 -338 -356 -338c-203 0 -333 74 -391 222c-25 64 -43 169 -53 316h-118c-33 0 -49 22 -49 66
c0 60 19 115 57 164c19 25 48 47 88 65c38 18 75 27 109 27c53 0 79 -21 79 -64v-98h476v340h-839v160h1205v-160z" />
    <glyph glyph-name="d" unicode="d" horiz-adv-x="1140" 
d="M980 1038v-514h-638c-3 -25 -4 -47 -4 -66c0 -61 17 -117 50 -166c63 -94 155 -146 274 -156h12c41 0 100 14 176 43c84 32 131 48 142 48c10 0 15 -6 15 -19c0 -38 -32 -81 -96 -130s-148 -75 -253 -78h-22c-197 0 -333 85 -410 256c-33 74 -51 163 -56 268l-98 -4h-3
c-34 0 -51 21 -51 64c0 73 26 136 78 190c51 54 111 81 180 81c41 0 62 -18 62 -55v-114h470v352h-828v160h1200v-160h-200z" />
    <glyph glyph-name="e" unicode="e" horiz-adv-x="1136" 
d="M804 1038h-530c0 -41 29 -93 86 -157c58 -64 119 -106 182 -125c16 -5 46 -8 90 -8c43 0 101 3 172 8v282zM976 590l-284 10c-79 0 -145 -8 -200 -23c-54 -15 -111 -51 -170 -106s-88 -96 -86 -123c32 -28 92 -73 180 -136c75 -47 151 -70 230 -70h16c48 2 109 30 182 86
c73 54 112 82 115 82s7 -2 11 -7c5 -5 7 -13 7 -25c0 -43 -36 -99 -109 -166c-72 -68 -128 -102 -168 -102c-13 -8 -40 -12 -80 -12c-121 0 -235 37 -340 110c-106 74 -182 148 -228 222c-9 9 -14 20 -14 34c0 46 40 105 120 178c80 72 138 119 174 140c-5 9 -29 33 -70 72
c-42 39 -73 73 -93 100c-20 28 -37 64 -49 110c-14 44 -21 69 -24 74h-114v160h1192v-160h-198v-448z" />
    <glyph glyph-name="f" unicode="f" horiz-adv-x="1140" 
d="M678 192c-45 41 -87 74 -124 98c-59 37 -133 56 -222 56c-91 0 -136 -30 -136 -91c0 -64 71 -102 214 -113c9 -1 19 -1 29 -1c65 0 145 17 239 51zM319 494c166 0 313 -67 441 -200c33 40 50 85 52 136v6c0 65 -31 118 -93 158c-64 41 -143 62 -237 61
c-51 0 -96 -5 -136 -15c-40 -11 -76 -16 -109 -16c-114 0 -171 35 -171 106c0 37 19 67 56 90c38 22 79 33 124 33c44 0 85 -7 123 -20s77 -20 117 -20c127 0 231 75 314 225h-822v160h1194v-160h-192c-12 -31 -38 -82 -78 -154c-49 -71 -93 -116 -132 -136
c76 -57 121 -94 135 -110c49 -54 73 -119 73 -196c0 -137 -46 -245 -139 -324s-213 -119 -360 -119c-23 0 -46 1 -69 3c-234 19 -356 99 -366 242c-1 7 -1 15 -1 22c-1 67 22 120 67 160c49 45 119 68 209 68z" />
    <glyph glyph-name="g" unicode="g" horiz-adv-x="1236" 
d="M550 624c-82 -3 -171 -7 -266 -14c-61 -19 -92 -65 -92 -138s26 -144 77 -211s111 -101 179 -101c50 0 84 27 102 82v382zM1076 1038v-1038h-160v1038h-204v-732c0 -105 -26 -183 -79 -232s-114 -74 -185 -74c-115 0 -213 51 -296 152s-124 211 -125 330
c0 118 48 202 143 252c61 32 187 48 380 48v256h-574v160h1314v-160h-214z" />
    <glyph glyph-name="h" unicode="h" horiz-adv-x="1072" 
d="M604 160c97 0 146 50 146 150v728h-764v160h1130v-160h-204v-728c0 -87 -24 -160 -74 -220c-48 -60 -124 -90 -226 -90c-143 0 -275 67 -396 202c-99 110 -148 217 -148 320c0 72 22 129 67 170s102 62 171 62h134v-162l-89 3c-71 0 -107 -28 -107 -85v-6
c4 -81 48 -158 132 -232c83 -75 159 -112 228 -112z" />
    <glyph glyph-name="i" unicode="i" horiz-adv-x="572" 
d="M356 1038v-1040h-160v1040h-218v160h218c-1 23 -2 45 -2 66c0 147 24 261 73 342c55 92 160 138 315 138c59 0 116 -17 168 -50c54 -33 92 -82 116 -147c18 -49 27 -100 27 -151c0 -16 -1 -32 -3 -48h-148c-2 21 -6 57 -13 108c-15 91 -71 136 -171 136
c-98 0 -161 -45 -188 -136c-9 -32 -14 -104 -14 -215v-43h282v-160h-282z" />
    <glyph glyph-name="j" unicode="j" horiz-adv-x="1140" 
d="M980 1038v-1038h-160v498h-488v-498h-160v498c-3 -2 -19 -3 -50 -3c-15 0 -34 0 -56 1h-2c-36 0 -54 22 -54 66c0 31 9 66 26 104c18 40 38 69 60 90c58 53 117 80 178 80c39 0 58 -19 58 -56v-124h488v382h-842v160h1200v-160h-198z" />
    <glyph glyph-name="k" unicode="k" horiz-adv-x="1192" 
d="M728 498c-69 132 -171 198 -307 198c-61 0 -111 -17 -152 -50c-59 -47 -88 -108 -88 -182c0 -49 17 -93 50 -130c41 -45 98 -68 173 -68s151 34 228 102c30 27 62 70 96 130zM1068 1038l-50 -260c-32 -106 -73 -201 -124 -284c21 -31 57 -100 108 -206
c30 -74 57 -170 80 -288h-166c-10 42 -26 100 -48 174c-18 46 -39 95 -62 148c-45 -64 -93 -112 -144 -144c-31 -19 -72 -38 -124 -55c-49 -17 -100 -25 -153 -25h-9c-56 1 -108 12 -155 33s-94 60 -139 119c-46 58 -69 126 -69 204c0 19 1 42 3 68c10 116 66 209 168 278
c66 45 148 67 245 67c56 0 106 -8 149 -25c99 -39 171 -97 218 -176c31 91 64 192 98 303c4 24 7 47 8 69h-926v160h1266v-160h-174z" />
    <glyph glyph-name="l" unicode="l" horiz-adv-x="1224" 
d="M796 1038h-396l190 -368h8zM980 1038l-136 -246c189 -72 284 -191 284 -356s-50 -285 -149 -358c-47 -35 -120 -61 -217 -78v156c55 14 96 32 123 54c58 49 87 125 87 230c0 91 -70 161 -210 208l-160 -274h-12l-162 274c-136 -47 -204 -117 -204 -208
c0 -105 29 -181 87 -230c27 -22 68 -40 123 -54v-156c-97 17 -170 43 -217 78c-99 73 -149 193 -149 358s93 284 278 356l-134 246h-240v160h1276v-160h-268z" />
    <glyph glyph-name="m" unicode="m" horiz-adv-x="1140" 
d="M980 1038v-1038h-162v498h-458c-14 -72 -39 -177 -74 -316c-26 -83 -69 -124 -130 -124c-78 0 -117 41 -117 123c0 36 10 76 31 120s43 92 68 143c43 101 65 226 65 373s-29 221 -87 221h-138v160h192c106 0 168 -77 186 -232c5 -45 8 -148 8 -308h454v540h354v-160h-192
z" />
    <glyph glyph-name="n" unicode="n" horiz-adv-x="1140" 
d="M614 1038v-202c104 -20 195 -70 272 -150s116 -171 116 -273c0 -215 -98 -353 -295 -413v160c51 27 84 52 101 77c23 37 35 93 35 170s-32 140 -97 191c-64 51 -135 76 -214 77c-79 -1 -150 -26 -215 -77s-97 -115 -97 -192s10 -131 30 -160c20 -31 55 -59 106 -86v-160
c-197 60 -295 198 -295 413c1 102 40 193 117 273s168 130 271 150v202h-459v160h1179v-160h-555z" />
    <glyph glyph-name="o" unicode="o" 
d="M-365 1645c46 -6 80 -24 101 -53c29 -40 44 -108 44 -203c-1 -28 -11 -43 -30 -45h-2c-17 0 -35 18 -52 54c-10 30 -24 63 -42 100c-13 11 -39 17 -80 18c-229 4 -349 7 -358 8c-32 4 -60 23 -84 58c-24 36 -37 91 -38 164c0 6 0 11 -1 16c0 63 9 94 27 94
c27 0 47 -27 62 -82c6 -27 17 -59 32 -94c16 -13 34 -20 56 -20c20 -1 42 -1 65 -1c26 0 126 -5 300 -14z" />
    <glyph glyph-name="p" unicode="p" horiz-adv-x="1134" 
d="M974 1038v-1038h-164v276c-26 -20 -68 -41 -128 -62c-58 -21 -122 -32 -190 -32s-138 16 -210 49s-129 69 -171 110c-39 37 -58 63 -58 77c0 1 0 3 1 4c-3 2 -5 8 -5 18s21 65 64 165c55 130 83 219 83 267c0 47 -10 87 -29 118c-19 32 -50 48 -93 48h-88v160h174
c57 0 105 -34 143 -102c38 -69 57 -139 57 -210c0 -17 -1 -32 -4 -46c-23 -126 -67 -251 -130 -376c97 -79 209 -118 338 -118c30 0 74 15 133 44c59 30 96 55 113 74v734h358v-160h-194z" />
    <glyph glyph-name="q" unicode="q" horiz-adv-x="1140" 
d="M986 1038c-13 -52 -29 -114 -50 -186c-33 -77 -79 -141 -140 -194c37 -26 68 -54 95 -85c64 -73 97 -152 99 -235v-10c0 -110 -44 -192 -132 -245c-91 -55 -212 -83 -364 -83c-77 0 -176 41 -296 122c-119 81 -179 141 -179 180c0 12 9 18 26 18s75 -24 173 -72
c99 -47 170 -76 212 -86c44 -9 82 -14 115 -14c73 0 137 15 192 46c55 30 82 78 82 143s-36 120 -109 163c-72 44 -144 66 -216 66c-21 0 -50 -5 -86 -14c-75 -19 -135 -28 -179 -28c-94 0 -141 39 -141 117v7c3 76 54 114 155 114c13 0 26 -1 41 -2l21 -2l82 -14
c55 -9 101 -14 137 -14c83 0 145 21 186 64s75 124 102 244h-833v160h1209v-160h-202z" />
    <glyph glyph-name="r" unicode="r" horiz-adv-x="1054" 
d="M730 650h-380c-47 0 -79 -5 -96 -16c-14 -9 -21 -24 -21 -45c0 -4 0 -8 1 -13c8 -67 57 -154 146 -261c90 -107 170 -160 239 -160c33 0 59 13 80 40s31 57 31 91v364zM894 1038v-720c0 -85 -20 -156 -60 -215c-47 -71 -115 -106 -203 -106c-135 0 -269 78 -402 234
c-117 137 -175 264 -175 381c0 132 85 198 254 198h422v228h-740v160h1106v-160h-202z" />
    <glyph glyph-name="s" unicode="s" horiz-adv-x="1140" 
d="M818 1038h-510c28 -110 42 -210 42 -299c0 -27 -1 -54 -4 -81h472v380zM980 1038v-1038h-162v498h-480c-6 -62 -22 -160 -48 -294c-27 -97 -71 -146 -134 -146c-77 0 -116 41 -116 124c0 25 4 51 12 78c25 63 53 132 82 206c29 75 45 132 48 172s4 76 5 107
c0 31 -5 75 -14 131l-27 162h-162v160h1196v-160h-200z" />
    <glyph glyph-name="t" unicode="t" horiz-adv-x="1122" 
d="M962 1038v-354c-13 3 -32 4 -56 4c-87 0 -199 -19 -338 -56c-88 -24 -170 -70 -246 -140c-77 -68 -115 -114 -115 -135v-6c0 -19 83 -72 249 -159c76 -40 137 -60 182 -60c16 0 46 2 90 8c44 4 92 32 144 81c53 49 82 74 88 74s9 -10 9 -30c0 -38 -24 -83 -71 -135
c-83 -91 -181 -136 -295 -135c-91 0 -206 39 -343 117c-68 39 -130 85 -185 139c-49 47 -73 77 -73 89c0 2 1 3 2 4c-1 1 -1 2 -1 3c1 11 18 43 53 95c40 60 92 121 157 182c65 62 142 111 231 146c89 36 204 60 344 72v196h-806v160h1184v-160h-204z" />
    <glyph glyph-name="u" unicode="u" 
d="M-930 -122c124 -47 240 -70 346 -70c108 0 220 23 338 70v-150c-121 -42 -234 -64 -337 -66h-13c-100 0 -211 22 -334 66v150z" />
    <glyph glyph-name="v" unicode="v" horiz-adv-x="1096" 
d="M936 1038v-332h-606c-27 0 -55 -9 -85 -26s-45 -38 -45 -62s11 -47 32 -68s41 -32 58 -32h622v-158h-446c15 -57 31 -97 48 -121c17 -25 49 -48 96 -69c45 -21 86 -32 121 -32s73 5 113 14s61 14 64 14s4 -1 4 -4l-34 -120c-77 -31 -144 -47 -200 -47c-17 0 -33 2 -46 5
c-145 35 -261 141 -348 316c-5 9 -31 25 -76 48s-81 47 -106 74c-41 43 -66 98 -76 166c-1 10 -2 20 -2 29c0 63 26 118 76 164c52 46 113 69 184 69h490v172h-788v160h1154v-160h-204z" />
    <glyph glyph-name="w" unicode="w" horiz-adv-x="520" 
d="M306 1038v-570h-156v570h-174v160h580v-160h-250z" />
    <glyph glyph-name="x" unicode="x" horiz-adv-x="1160" 
d="M268 1038h-292v160h1220v-160h-710c107 -79 197 -131 268 -156c7 -2 101 -28 282 -78l-2 -152c-97 30 -179 53 -246 70v-290c0 -48 -8 -72 -24 -72s-46 29 -92 88c-44 58 -73 89 -86 94c-55 21 -103 32 -142 32c-40 0 -68 -8 -84 -24c-118 -121 -177 -187 -177 -198
c0 -3 1 -5 3 -6c-1 -1 -1 -2 -1 -3c0 -23 49 -59 145 -109c98 -50 205 -83 322 -98h3c18 0 82 15 193 44c117 32 185 48 204 48c18 0 27 -4 26 -11c0 -33 -48 -76 -144 -131c-101 -57 -193 -86 -276 -86c-125 0 -237 22 -336 68c-99 44 -177 95 -234 151
c-58 56 -87 94 -87 115c0 2 0 4 -1 4v5c0 23 37 81 111 174s135 154 181 183c48 28 94 42 138 42c46 0 114 -25 206 -74c-1 34 -1 59 -1 76c0 16 0 24 1 24c-40 13 -83 36 -129 68s-86 60 -119 84c-26 16 -66 55 -120 118z" />
    <glyph glyph-name="y" unicode="y" 
d="M-811 1732c124 -13 238 -58 343 -135s189 -177 253 -299c19 -35 28 -59 28 -74c0 -14 -4 -21 -13 -21c-8 0 -54 42 -139 125s-163 144 -235 181c-71 37 -183 59 -335 64c-31 21 -47 45 -47 71c0 27 14 49 42 66c23 15 51 22 84 23c6 0 12 0 19 -1z" />
    <glyph glyph-name="z" unicode="z" horiz-adv-x="1140" 
d="M980 1038v-1038h-160v498h-488v-498h-160v498c-3 -2 -19 -3 -50 -3c-15 0 -34 0 -56 1h-2c-36 0 -54 22 -54 66c0 31 9 66 26 104c18 40 38 69 60 90c58 53 117 80 178 80c39 0 58 -19 58 -56v-124h488v382h-842v160h1200v-160h-198zM516 207c21 19 45 29 72 29
c1 0 1 0 1 1c26 0 48 -10 67 -30c19 -21 29 -45 30 -72c0 -27 -10 -50 -30 -69c-20 -20 -44 -30 -71 -30h-1c-25 0 -48 10 -68 30c-20 21 -30 45 -31 73c0 26 10 49 31 68z" />
    <glyph glyph-name="braceleft" unicode="{" horiz-adv-x="714" 
d="M420 1198v-352c0 -80 -14 -140 -41 -180s-84 -69 -169 -86c84 -16 140 -45 168 -86s42 -103 42 -184v-350c0 -138 84 -223 252 -256v-24c-137 0 -237 17 -300 52c-81 45 -122 125 -122 240v370c0 69 -14 121 -41 156s-80 62 -157 82c77 19 130 45 157 80s41 87 41 156
v372c0 114 41 193 122 238c63 35 163 52 300 52v-24c-168 -33 -252 -118 -252 -256z" />
    <glyph glyph-name="bar" unicode="|" horiz-adv-x="1110" 
d="M598 322c-77 77 -155 116 -234 116c-78 0 -121 -28 -130 -84c-1 -7 -2 -14 -2 -20c0 -67 50 -101 150 -101c9 0 19 0 28 1c73 4 136 33 188 88zM816 591c0 83 -65 125 -194 125h-538v322h-111v160h1183v-160h-912v-162h456c98 0 177 -41 236 -122c37 -49 55 -97 55 -142
c0 -121 -50 -227 -149 -320c42 -70 94 -168 156 -294h-174l-118 206c-91 -82 -193 -125 -304 -128h-15c-79 0 -151 19 -216 58c-69 41 -104 102 -104 181c0 12 1 24 3 37c19 133 102 213 250 238c24 4 47 6 69 6c60 0 121 -18 183 -54c63 -36 115 -75 158 -118
c15 17 29 35 44 53c28 35 42 73 42 114z" />
    <glyph glyph-name="braceright" unicode="}" horiz-adv-x="762" 
d="M464 1186v-370c0 -69 14 -121 41 -156s80 -61 157 -80c-77 -20 -130 -47 -157 -82s-41 -87 -41 -156v-372c0 -114 -41 -193 -122 -238c-63 -35 -163 -52 -300 -52v24c167 33 250 118 250 256v350c0 81 14 142 42 182s85 69 170 88c-85 17 -142 45 -170 85
s-42 100 -42 181v352c0 138 -83 223 -250 256v24c137 0 237 -17 300 -52c81 -45 122 -125 122 -240z" />
    <glyph glyph-name="asciitilde" unicode="~" horiz-adv-x="400" 
d="M-16 1487c-9 22 -13 63 -14 123v14c0 51 3 76 10 76c8 0 20 -19 35 -56c7 -26 20 -66 39 -119c31 -63 85 -94 163 -94s132 31 163 94c33 117 57 175 73 175c7 0 11 -19 11 -57v-10c-1 -45 -5 -93 -14 -146c-41 -109 -119 -163 -232 -163c-114 0 -192 54 -234 163z
M450 1038h-450v160h450v-160z" />
    <glyph glyph-name="nonbreakingspace" unicode="&#xa0;" horiz-adv-x="700" 
 />
    <glyph glyph-name="exclamdown" unicode="&#xa1;" horiz-adv-x="1820" 
d="M264 678c-95 0 -142 -32 -142 -97v-3c1 -31 15 -56 42 -74c27 -19 57 -28 88 -28c32 0 67 8 105 25c37 16 55 41 55 74c0 69 -49 103 -148 103zM1094 288c-29 26 -57 39 -85 39c-3 0 -7 0 -11 -1c-32 -4 -102 -6 -210 -6c33 -151 109 -226 228 -226h6c83 2 124 34 124 97
v9c-2 29 -19 59 -52 88zM1198 608h-434v-32c0 -44 1 -96 4 -156c23 -1 44 -1 65 -1c106 0 175 6 207 18c37 14 70 37 96 69c28 31 48 65 62 102zM280 776c159 -6 238 -87 238 -242c0 -45 -2 -88 -7 -130s-7 -91 -7 -146c0 -117 23 -204 68 -260c1 -5 2 -9 2 -13
c0 -16 -11 -24 -32 -24s-48 23 -79 67c-31 46 -50 101 -57 166c-3 32 -5 67 -6 104c0 39 2 82 6 128c-59 -32 -114 -48 -165 -48c-53 0 -101 18 -144 53c-49 41 -73 89 -73 144s21 104 63 145c39 38 97 57 174 56h19zM1296 608c-30 -107 -82 -183 -156 -230
c69 -40 104 -101 104 -182c0 -54 -19 -102 -56 -143s-91 -61 -162 -61c-212 0 -333 145 -362 436c-5 43 -7 83 -7 118c0 23 1 43 3 62h-66v102h68c42 211 152 325 330 342c12 1 28 2 49 2c30 0 69 -1 117 -4c37 70 158 232 362 486c127 158 276 237 448 237
c173 0 299 -76 378 -227c32 -62 48 -128 48 -200c0 -70 -13 -106 -38 -106c-17 0 -32 26 -46 76c-14 52 -27 98 -38 140c-61 142 -157 213 -290 213c-71 0 -143 -21 -216 -63c-73 -41 -136 -95 -188 -162c-99 -135 -221 -300 -366 -495c-43 0 -117 -1 -222 -3
c-72 -1 -129 -37 -172 -108c-23 -38 -39 -81 -48 -128h608v-102h-82z" />
    <glyph glyph-name="cent" unicode="&#xa2;" horiz-adv-x="1056" 
d="M452 1050c-96 -14 -171 -56 -224 -127s-80 -151 -80 -241s26 -170 80 -240c52 -71 127 -113 224 -128v736zM836 258c-71 -53 -163 -81 -278 -86v-164h-106v166c-145 14 -258 70 -338 168c-79 99 -119 213 -119 342s40 244 121 344c80 99 192 156 336 170v156h106v-154
c81 -4 151 -21 210 -51c24 -16 48 -32 72 -47v-144c-56 56 -150 87 -282 94v-740c115 6 208 37 278 94v-148z" />
    <glyph glyph-name="sterling" unicode="&#xa3;" horiz-adv-x="1180" 
d="M660 1058c-138 0 -207 -49 -207 -147c0 -29 12 -84 37 -163c24 -80 36 -124 36 -134c0 -8 -1 -15 -2 -20h232v-88h-236c-6 -39 -19 -97 -40 -174c-13 -33 -29 -61 -46 -82c-18 -21 -36 -43 -54 -64c82 -37 157 -55 226 -55c9 0 17 0 26 1c125 9 222 41 292 96l70 -112
c-33 -29 -94 -56 -184 -80c-88 -25 -157 -37 -206 -37s-111 9 -184 28c-97 25 -162 37 -195 37s-64 -10 -95 -29c-21 -15 -41 -31 -62 -47c-20 36 -45 79 -76 130c7 5 46 27 116 66c12 7 35 14 70 22c48 11 82 29 102 52c21 24 40 58 58 104c18 44 29 91 32 140h-234v92h242
c1 10 -6 42 -22 96c-33 113 -50 193 -50 240c0 77 35 141 104 192c67 49 142 73 223 72h10c85 -2 155 -23 209 -64c55 -40 100 -89 135 -146c17 -34 35 -68 53 -102h-160c-27 55 -46 88 -56 100c-42 51 -97 76 -164 76z" />
    <glyph glyph-name="currency" unicode="&#xa4;" horiz-adv-x="434" 
d="M60 1370c-48 32 -82 67 -102 108s-31 89 -32 142v9c0 47 5 71 15 71c7 0 18 -22 31 -67c14 -45 30 -80 48 -107c42 -63 105 -95 188 -95s146 32 188 95c18 27 34 62 48 107c13 45 24 67 31 67c10 0 15 -24 15 -72v-9c-1 -107 -45 -190 -131 -247
c-48 -32 -98 -48 -150 -48s-102 16 -149 46zM460 1038h-460v160h460v-160z" />
    <glyph glyph-name="yen" unicode="&#xa5;" horiz-adv-x="1112" 
d="M1106 1376l-386 -608h310v-114h-386v-170h386v-114h-386v-370h-176v370h-384v114h384v170h-384v114h308l-386 608h200l350 -590l350 590h200z" />
    <glyph glyph-name="section" unicode="&#xa7;" 
d="M-178 -217c0 -89 -20 -160 -60 -213c-48 -48 -111 -72 -189 -72s-152 35 -223 105c-52 52 -78 117 -78 195c0 51 19 87 57 108c19 11 50 17 93 17c44 0 66 -9 66 -26s-28 -30 -84 -41c-27 -5 -40 -19 -40 -42c0 -65 19 -114 58 -147c52 -45 107 -67 165 -67h8
c35 1 62 18 81 54c20 34 30 77 30 127v179h116v-177zM-748 -658c124 -43 240 -64 347 -64s220 21 337 64v-74c-113 -39 -223 -61 -330 -64h-22c-101 0 -211 21 -332 64v74zM-748 -500c124 -45 240 -68 347 -68s220 23 337 68v-74c-127 -44 -240 -67 -340 -68h-9
c-98 0 -210 23 -335 68v74z" />
    <glyph glyph-name="dieresis" unicode="&#xa8;" 
d="M-798 -652c124 -43 240 -64 347 -64s220 21 337 64v-80c-113 -39 -223 -61 -330 -64h-22c-101 0 -211 21 -332 64v80zM-798 -482c124 -45 240 -68 347 -68s220 23 337 68v-80c-127 -44 -240 -67 -340 -68h-9c-98 0 -210 23 -335 68v80z" />
    <glyph glyph-name="ordfeminine" unicode="&#xaa;" horiz-adv-x="1208" 
 />
    <glyph glyph-name="registered" unicode="&#xae;" 
d="M-372 -351c0 -14 -7 -24 -22 -30c-2 -1 -4 -1 -7 -1c-15 0 -36 13 -63 40c-33 32 -64 64 -95 95c-39 36 -75 59 -106 68c-43 -54 -88 -81 -135 -81c-32 0 -60 12 -84 36c-24 25 -36 53 -36 84s10 60 30 88c21 26 53 40 98 40s86 -7 123 -20c7 12 15 33 26 64h119
c-14 -40 -32 -79 -53 -117c34 -23 77 -67 128 -131c51 -63 77 -108 77 -135z" />
    <glyph glyph-name="degree" unicode="&#xb0;" horiz-adv-x="740" 
d="M666 782v-106h-598v106h598zM522 1322c-43 43 -94 64 -154 64c-1 0 -1 0 -1 1c-58 1 -108 -20 -151 -63s-65 -93 -66 -152v-5c0 -57 21 -106 62 -149c43 -44 94 -66 153 -67h3c57 0 107 21 150 64s65 94 66 153v6c1 57 -20 106 -62 148zM367 1477c83 1 155 -30 215 -91
c61 -62 91 -135 91 -219c0 -82 -30 -152 -90 -211c-61 -60 -133 -90 -217 -91h-2c-83 1 -154 31 -214 91c-61 61 -91 133 -91 216s31 154 91 214c62 61 134 91 217 91z" />
    <glyph glyph-name="plusminus" unicode="&#xb1;" horiz-adv-x="1224" 
d="M1098 158v-138h-1038v138h1038zM1013 651h-357v-357h-154v357h-357v154h357v357h154v-357h357v-154z" />
    <glyph glyph-name="acute" unicode="&#xb4;" horiz-adv-x="26" 
d="M-202 -54h-126h126zM187 -227h-243v-145c0 -39 -17 -58 -52 -58c-22 0 -51 11 -88 34c-37 22 -53 34 -50 37c-1 1 -2 4 -2 10s10 29 30 68c18 39 29 67 32 83c3 18 4 36 5 53c0 19 -7 50 -21 91h-126c15 -29 23 -56 23 -81s-13 -67 -39 -127c-25 -57 -37 -90 -37 -99
l1 -16c1 -19 20 -41 58 -67c37 -27 84 -50 138 -69c56 -19 99 -29 131 -29c59 0 96 32 110 97c7 29 10 70 10 121h112z" />
    <glyph glyph-name="mu" unicode="&#xb5;" 
d="M-564 1740c56 0 97 -6 122 -18s54 -35 86 -68c31 -32 47 -78 47 -138s-25 -113 -75 -160c-27 -25 -47 -38 -60 -38s-20 4 -21 13c0 4 1 8 3 13c35 63 52 112 52 148s-14 66 -42 91c-27 25 -65 37 -114 37s-87 -12 -114 -36c-27 -25 -40 -56 -40 -92s17 -85 52 -148
c2 -5 3 -9 3 -13c-1 -9 -8 -13 -21 -13s-33 13 -60 38c-50 47 -75 100 -75 160s18 109 55 146c49 52 117 78 202 78z" />
    <glyph glyph-name="mu" unicode="&#x3bc;" 
d="M-564 1740c56 0 97 -6 122 -18s54 -35 86 -68c31 -32 47 -78 47 -138s-25 -113 -75 -160c-27 -25 -47 -38 -60 -38s-20 4 -21 13c0 4 1 8 3 13c35 63 52 112 52 148s-14 66 -42 91c-27 25 -65 37 -114 37s-87 -12 -114 -36c-27 -25 -40 -56 -40 -92s17 -85 52 -148
c2 -5 3 -9 3 -13c-1 -9 -8 -13 -21 -13s-33 13 -60 38c-50 47 -75 100 -75 160s18 109 55 146c49 52 117 78 202 78z" />
    <glyph glyph-name="paragraph" unicode="&#xb6;" horiz-adv-x="724" 
d="M596 992h-66v-1324h-68v1324h-126v-1324h-68v704c-75 13 -138 50 -190 113s-78 145 -78 247c0 70 23 137 70 202c62 84 148 126 258 126h268v-68z" />
    <glyph glyph-name="periodcentered" unicode="&#xb7;" horiz-adv-x="700" 
d="M330 712c35 0 66 -13 92 -39c25 -26 38 -58 38 -95s-14 -67 -43 -90s-58 -34 -87 -34s-58 11 -86 33s-42 52 -42 91s12 71 38 96c24 25 55 38 90 38z" />
    <glyph glyph-name="periodcentered" unicode="&#x2219;" horiz-adv-x="700" 
d="M330 712c35 0 66 -13 92 -39c25 -26 38 -58 38 -95s-14 -67 -43 -90s-58 -34 -87 -34s-58 11 -86 33s-42 52 -42 91s12 71 38 96c24 25 55 38 90 38z" />
    <glyph glyph-name="questiondown" unicode="&#xbf;" horiz-adv-x="1332" 
d="M1046 920l-307 -307l307 -307l-108 -107l-307 306l-306 -306l-108 107l307 307l-307 307l108 107l306 -306l307 306z" />
    <glyph glyph-name="Aring" unicode="&#xc5;" horiz-adv-x="2168" 
d="M1133 -147c76 -263 212 -395 408 -395h10c61 3 112 19 152 48c37 27 55 65 55 112v12c-3 53 -33 106 -88 157s-108 77 -159 77c-5 0 -21 -2 -47 -6c-26 -3 -136 -5 -331 -5zM1094 354c0 -134 5 -249 14 -344c245 0 389 7 431 22c81 29 141 67 181 114
c41 47 79 117 115 208h-741zM530 213c67 33 101 80 101 140c-1 116 -76 174 -227 174c-149 0 -224 -57 -223 -171v-8c1 -56 20 -99 56 -129s81 -45 134 -45s106 13 159 39zM762 -200c0 -119 19 -225 57 -318l70 -128c5 -7 7 -14 7 -21c0 -21 -13 -31 -38 -31
c-26 0 -52 10 -78 29c-63 47 -110 116 -140 209c-32 93 -47 180 -47 260c0 82 7 178 22 290c-80 -47 -163 -70 -251 -70c-86 0 -165 28 -236 85s-106 135 -106 235c0 229 126 344 377 344h26c132 -4 227 -36 284 -94c57 -60 86 -150 86 -272c0 -51 -4 -140 -11 -265
c-15 -163 -22 -247 -22 -253zM1966 662c-190 135 -344 202 -463 202s-217 -47 -296 -140c-57 -67 -93 -137 -109 -212h957v-158h-60c-33 -101 -71 -182 -112 -244c-41 -61 -101 -116 -180 -163c142 -85 213 -190 213 -317c0 -91 -30 -168 -88 -232
c-60 -64 -149 -96 -269 -96c-195 0 -346 76 -453 227c-88 124 -141 289 -159 496c-7 73 -10 164 -10 273v56h-67v158h68c13 143 72 264 178 362c105 97 230 146 374 146c58 0 120 -10 188 -29c66 -19 177 -78 330 -176c34 -26 83 -67 146 -123l-3 -169
c-38 30 -100 76 -185 139z" />
    <glyph glyph-name="AE" unicode="&#xc6;" horiz-adv-x="2000" 
d="M2524 1034l2 -129v-63c-6 -35 -27 -54 -62 -55h-4c-48 0 -77 32 -87 95c-5 35 -8 85 -8 150c0 186 -66 343 -197 472s-290 193 -477 193c-259 0 -519 -162 -780 -487c-73 -91 -156 -202 -249 -335s-150 -212 -171 -237c-107 -131 -213 -196 -320 -196
c-47 0 -105 23 -176 69c-13 8 -19 16 -19 24c-1 43 -2 96 -2 161c90 -65 156 -97 197 -97c58 1 134 58 227 172c61 75 132 171 212 290c82 119 133 192 156 219c147 174 277 303 391 387c169 125 347 187 534 187c229 0 425 -79 589 -238c162 -159 244 -353 244 -582z" />
    <glyph glyph-name="Ccedilla" unicode="&#xc7;" horiz-adv-x="2112" 
d="M1236 1388c-64 -213 -97 -387 -100 -522v-17c0 -131 29 -278 88 -439c116 31 212 91 288 182s114 194 114 310s-37 218 -110 306c-73 87 -167 147 -280 180zM1302 218c-40 -17 -72 -32 -94 -46c-24 -14 -58 -43 -104 -88v-198c422 229 671 453 746 672
c47 136 70 242 70 316c0 76 -16 144 -48 207c-33 63 -88 142 -166 239c105 -41 189 -110 250 -208c61 -97 92 -215 92 -352c0 -68 -7 -135 -22 -202c-29 -133 -76 -245 -140 -336c-48 -63 -119 -158 -214 -284c-61 -82 -96 -158 -104 -228l-228 210
c-77 -25 -145 -60 -204 -106c62 -25 122 -55 180 -92c79 -50 118 -102 118 -156c0 -19 -7 -35 -22 -49s-31 -21 -50 -21c-41 0 -62 21 -62 64c0 19 8 39 24 62c-27 23 -51 43 -74 58c-23 16 -73 39 -150 68v-232c36 -33 54 -63 54 -89s-10 -49 -31 -69s-45 -30 -73 -30
s-51 10 -68 30c-17 19 -26 42 -26 68c0 27 18 57 54 90v232c-35 -12 -78 -30 -130 -54l-94 -72c16 -23 24 -43 24 -62c0 -43 -21 -64 -62 -64c-19 0 -35 7 -50 21s-22 30 -22 49c0 54 39 106 118 156c58 37 118 67 180 92c-63 51 -131 86 -204 106l-228 -210
c-8 70 -40 141 -94 213c-56 72 -130 172 -224 299c-64 91 -111 203 -140 336c-15 67 -22 134 -22 202c0 137 31 255 92 352c61 98 145 167 250 208c-78 -97 -133 -176 -166 -239c-32 -63 -48 -131 -48 -207c0 -74 23 -180 70 -316c75 -219 324 -443 746 -672v198
c-21 21 -58 52 -110 92c-20 12 -49 26 -88 42c13 29 28 67 44 112c-131 36 -238 107 -322 214c-84 106 -126 226 -126 358c0 134 42 252 126 358c84 104 189 175 316 212c-11 31 -21 56 -30 76c50 36 101 78 154 126c15 14 33 38 52 70c19 34 32 54 38 62
c13 -31 40 -75 80 -132c52 -48 103 -90 154 -126c-9 -20 -19 -45 -30 -76c131 -38 238 -109 322 -212c84 -104 126 -223 126 -358c0 -134 -43 -254 -130 -359c-86 -105 -195 -176 -328 -213c7 -20 23 -57 48 -112zM884 410c60 165 90 313 90 443v17c-3 133 -36 306 -100 518
c-111 -31 -202 -90 -274 -179s-108 -191 -108 -307c0 -117 36 -220 110 -310c72 -90 167 -151 282 -182z" />
    <glyph glyph-name="Iacute" unicode="&#xcd;" 
d="M-186 -54v-232h-346c-19 0 -36 -5 -52 -14c-14 -10 -22 -23 -22 -39s7 -31 22 -47c15 -14 28 -22 40 -22h344v-122h-224c3 -21 7 -41 12 -62c4 -20 17 -37 38 -50c22 -13 43 -20 62 -20s42 3 66 8c26 6 40 9 44 8c-3 -19 -12 -47 -28 -82c-24 -29 -64 -44 -120 -44h-18
c-69 3 -133 77 -194 222c-2 5 -32 28 -90 72c-59 42 -89 88 -92 136v10c0 44 16 83 47 116c34 36 76 54 127 54h246v108h138z" />
    <glyph glyph-name="Icircumflex" unicode="&#xce;" horiz-adv-x="1048" 
d="M80 346c89 -75 153 -112 194 -112c47 0 72 46 74 138l4 298h368v368h-734v160h1080v-160h-178v-1038h-170v510h-206c0 -131 -10 -236 -32 -318c-20 -80 -69 -121 -144 -121s-170 38 -284 113c0 3 9 57 28 162z" />
    <glyph glyph-name="Idieresis" unicode="&#xcf;" horiz-adv-x="26" 
d="M-202 -54v-668h-134v328h-112c0 -64 -3 -115 -10 -152c-15 -81 -51 -122 -110 -122c-33 0 -76 12 -132 36c-54 25 -101 54 -139 87s-57 62 -57 85c-1 3 -1 9 -1 20c-1 11 8 42 27 95c27 79 40 141 40 187c1 46 -4 81 -14 104h136c7 -29 11 -64 11 -103
c0 -26 -2 -54 -5 -85c-2 -16 -13 -49 -32 -98c-20 -49 -30 -78 -30 -85s1 -12 2 -13c-3 -3 13 -19 50 -47s66 -42 89 -42c35 0 52 24 52 73v182h243v218h126z" />
    <glyph glyph-name="Ograve" unicode="&#xd2;" horiz-adv-x="700" 
d="M590 1198v-1218h-166v1218h166zM270 1198v-1218h-166v1218h166z" />
    <glyph glyph-name="Oacute" unicode="&#xd3;" horiz-adv-x="2656" 
d="M1506 1304l-8 -89c13 -36 19 -55 20 -57c11 -21 26 -32 44 -35c23 55 35 87 35 93c0 8 -1 14 -2 19c0 19 -7 35 -22 49c-15 15 -28 22 -41 22c-12 0 -21 -1 -26 -2zM1609 1304c26 -62 66 -103 121 -124c12 5 17 13 16 25c-5 27 -7 37 -7 30c-6 20 -19 42 -37 65
c-20 24 -37 36 -54 36s-30 -11 -39 -32zM1294 1313h93c38 1 64 14 78 38c-7 23 -22 35 -47 35s-54 -6 -88 -20c-33 -12 -50 -26 -50 -41c0 -6 5 -10 14 -12zM1659 1389c31 -50 82 -75 153 -75c9 0 18 0 27 1c0 19 -17 40 -52 63c-35 24 -63 36 -84 36s-36 -8 -44 -25z
M1624 1424c0 45 -25 70 -76 74c-41 -2 -61 -27 -61 -75c0 -7 1 -15 2 -22c10 -23 35 -40 76 -50c39 17 59 41 59 73zM1659 1510c-8 -11 -12 -21 -12 -29c0 -18 18 -27 54 -27c52 0 93 25 124 75c-26 14 -55 21 -89 21c-32 0 -58 -13 -77 -40zM1285 1552
c-1 -29 16 -55 49 -79c28 -21 55 -31 81 -31c4 0 8 0 12 1c15 2 23 20 23 55c-33 36 -83 54 -148 54h-17zM1430 1703l-3 -80c7 -20 15 -40 23 -59c12 -23 28 -35 49 -35c7 0 13 1 19 2c11 7 16 21 16 42c-1 21 -1 37 -1 50c-21 53 -55 80 -103 80zM1663 1742
c-18 -13 -38 -37 -59 -72c-22 -34 -33 -64 -33 -89s11 -43 34 -52h4c45 0 67 47 67 140c0 33 -4 58 -13 73zM2292 1129c47 66 77 106 90 120c38 43 74 69 107 76c-27 -54 -79 -127 -156 -219c55 20 106 52 155 95c48 43 72 87 72 130c0 20 -6 39 -17 56c-15 6 -30 9 -45 9
c-57 0 -107 -30 -150 -90c-38 -54 -57 -107 -57 -158c0 -7 0 -13 1 -19zM205 108c19 -47 46 -71 81 -71c10 0 20 3 30 9c-4 18 -16 48 -36 90c-19 41 -29 75 -29 102c0 49 24 106 72 172c-89 -64 -133 -139 -133 -226c0 -25 5 -51 15 -76zM422 455
c-83 -65 -124 -132 -124 -203c0 -41 14 -77 44 -110c28 -33 63 -49 104 -49c9 0 18 1 27 3c-64 57 -96 122 -96 195c0 50 15 105 45 164zM299 720l62 72c-28 0 -59 -13 -94 -40s-52 -53 -52 -80c0 -11 4 -21 11 -29c115 41 185 94 209 158h-3c-15 -1 -37 -14 -66 -39
c-31 -28 -53 -42 -67 -42zM348 848l-92 -10c-22 0 -41 6 -58 18c13 10 32 15 56 15c5 -1 10 -1 15 -1c9 -1 18 -1 26 -1c18 0 31 2 40 6c-21 26 -49 39 -87 39c-36 0 -71 -7 -104 -20s-50 -32 -52 -57c47 -18 96 -27 148 -27c51 0 97 12 136 35c-9 2 -18 3 -28 3zM597 939
c14 5 39 20 75 45c37 25 62 37 76 37c13 0 23 0 29 -1c-8 -14 -35 -32 -81 -56c-45 -22 -70 -41 -75 -56c96 0 170 51 222 153c-18 5 -43 8 -75 8c-31 0 -68 -10 -110 -29c-42 -20 -63 -48 -63 -84c0 -5 1 -11 2 -17zM119 1173c35 -75 81 -141 137 -197
c58 -56 121 -84 190 -84c0 4 -28 26 -83 66c-55 39 -88 72 -97 97c23 -9 52 -28 89 -57c37 -28 64 -46 82 -55c-61 115 -167 191 -318 230zM538 958c66 69 99 144 99 225c0 25 -4 50 -11 73c-61 -25 -91 -87 -91 -185c0 -12 1 -31 1 -56c2 -25 2 -44 2 -57zM394 1306l3 -168
c7 -91 27 -142 60 -155c-19 74 -28 120 -28 138s1 27 4 27c9 0 32 -48 71 -145c1 9 1 19 1 30c1 42 -6 92 -21 151c-19 73 -49 114 -90 122zM1760 1586l78 7c24 0 43 -9 58 -26c1 -32 -9 -56 -28 -73s-44 -38 -75 -63c5 -9 28 -29 68 -60s60 -61 60 -90c0 -5 -1 -11 -2 -16
c-7 -2 -17 -3 -29 -3c-10 0 -22 1 -35 2c-30 3 -50 4 -59 4s-18 -2 -27 -5c2 -7 9 -25 19 -57c12 -30 17 -55 17 -74c-9 -3 -21 -4 -36 -4s-39 12 -75 34c-34 24 -57 37 -66 42c-11 -39 -32 -96 -63 -173c-44 37 -80 112 -109 225c-31 -52 -69 -134 -112 -244
c-44 -112 -72 -178 -83 -200c27 5 70 24 131 56c61 33 111 49 150 49s81 -23 124 -69c-43 -85 -125 -128 -245 -128c-33 0 -71 3 -115 8c-44 6 -68 9 -71 9c-20 -71 -61 -269 -123 -594c9 -21 21 -49 37 -82v6c0 62 11 114 32 157c22 44 60 103 114 178
c32 -20 48 -55 48 -106c0 -50 -15 -108 -44 -174c-29 -65 -59 -118 -88 -159c79 -141 135 -245 170 -313c35 -69 67 -145 98 -230c5 37 19 93 39 168c22 75 34 130 39 165c-11 25 -21 48 -31 71c-17 29 -38 44 -63 44c-7 0 -14 -1 -22 -2c-49 14 -73 43 -73 87
c0 25 10 46 30 65c19 18 41 27 66 27c52 0 78 -29 78 -87l-2 -61c0 -42 14 -71 42 -88c49 268 196 577 443 927c-19 49 -38 96 -55 142c-18 45 -27 90 -27 134c0 88 40 170 121 247c43 -68 64 -140 64 -217s-10 -140 -31 -190c15 24 46 66 93 127c46 59 69 93 68 102l-12 72
c0 68 26 135 78 199c52 66 111 98 177 98c32 0 59 -10 82 -29s34 -45 34 -77c0 -65 -37 -129 -111 -192c-73 -62 -144 -94 -211 -97l-184 -248c73 33 142 50 207 50c105 0 182 -37 229 -112c-41 -50 -108 -75 -200 -75c-47 0 -102 6 -165 18l-118 23
c-102 -162 -174 -282 -216 -359c-85 -158 -148 -306 -189 -445c43 65 129 138 256 219c127 80 242 120 343 120c10 0 20 0 30 -1c92 164 188 246 289 246c23 0 45 -5 68 -16c-14 -83 -40 -143 -79 -182c-24 -24 -56 -41 -98 -53c-40 -10 -63 -21 -67 -31
c80 -31 141 -83 183 -156c43 -73 64 -151 64 -232s-19 -147 -58 -198c-38 -51 -92 -80 -163 -88c-27 -3 -55 -4 -86 -4c-117 0 -176 14 -176 42c0 2 0 4 1 6c3 13 14 19 31 19s40 -2 69 -6c28 -5 49 -7 62 -8h22c83 0 140 14 169 43c49 48 73 108 73 179c0 10 -1 24 -3 41
c-22 176 -99 284 -230 324c57 -42 85 -101 85 -175c0 -76 -24 -126 -73 -151c-85 43 -127 103 -127 180c0 35 12 93 36 175c-160 -20 -305 -81 -436 -182c-89 -69 -158 -143 -205 -221c5 -1 13 -2 23 -2c9 0 28 5 55 13c27 10 45 15 52 16c23 52 56 78 101 78s70 -25 76 -75
c1 -5 1 -11 1 -16c0 -21 -6 -41 -19 -60c-16 -23 -40 -34 -72 -34c-33 0 -64 22 -93 66c-41 -10 -89 -22 -142 -37c-49 -206 -83 -340 -100 -401c43 65 82 108 115 130s85 33 154 33c17 0 43 0 79 -1c-9 -145 -119 -227 -330 -244l11 -43h-86l-22 43c-10 3 -23 5 -38 5
s-42 -5 -81 -16s-68 -16 -87 -16c-72 0 -135 52 -189 157c79 16 154 24 225 24s123 -17 156 -52c-1 7 -9 29 -24 64c-60 36 -135 71 -226 105c-91 33 -168 56 -231 69l-59 -178c-43 -94 -104 -141 -182 -141c-14 0 -29 1 -44 4c-5 44 -7 78 -7 102c0 52 15 92 46 120
l162 116c-70 3 -142 5 -215 5s-142 -4 -207 -11c-10 -70 -39 -135 -87 -196c-49 -61 -106 -101 -172 -120c-11 24 -16 55 -16 93s14 82 40 131c28 50 58 89 91 118c-93 15 -151 28 -174 39c-49 23 -86 68 -111 135c31 29 71 44 120 44s102 -19 159 -58s105 -81 144 -127h359
c-104 41 -172 128 -203 260c21 24 45 36 71 36c53 0 114 -45 181 -134c47 -63 84 -126 110 -187c118 -25 262 -78 431 -159c-51 96 -127 241 -228 436c-65 -21 -123 -31 -174 -31c-87 0 -160 31 -217 93c47 57 99 85 159 85c58 0 122 -16 189 -49c-15 27 -41 74 -76 139
c-121 221 -245 335 -374 340c-9 1 -17 1 -24 0c-114 0 -182 -37 -204 -110c-10 -35 -15 -68 -15 -102c0 -32 9 -64 28 -96c18 -30 45 -46 81 -46h29c10 0 24 13 42 40c1 5 2 10 2 15l-15 65c0 9 6 15 17 18c12 2 21 -6 28 -23s10 -32 10 -45c0 -50 -28 -90 -83 -120
c-38 -21 -68 -35 -89 -42c-18 -6 -44 -9 -78 -9h-20c-25 -37 -57 -55 -98 -55c-23 0 -42 6 -59 18c-49 33 -74 86 -74 161c0 137 86 245 258 322c75 34 150 51 225 51c76 0 140 -21 191 -63l1 16c-69 77 -157 173 -265 288c-37 -4 -73 -23 -107 -56c-57 -56 -89 -87 -96 -92
c-46 -31 -104 -47 -173 -47c-1 6 -2 14 -2 25s5 30 17 59c10 28 16 49 16 63s-3 26 -10 37c-53 0 -109 16 -168 47c12 29 42 56 92 82c48 26 79 47 90 63c-49 41 -99 121 -150 240c5 1 11 1 17 1c66 0 157 -31 272 -92c1 13 2 30 2 51v49c0 76 8 132 25 168
c25 -8 51 -37 78 -88s51 -76 70 -76c14 3 33 19 56 49c24 28 46 46 67 51c15 -44 22 -84 22 -121c0 -36 -1 -65 -4 -87c21 -5 57 -8 107 -11c52 -3 88 -11 111 -25c-24 -72 -62 -125 -115 -160c-27 -18 -64 -34 -112 -47c-49 -13 -73 -29 -73 -47
c193 -194 359 -399 496 -614c10 94 48 276 113 546c-55 32 -102 77 -142 135c-38 59 -58 115 -58 170c0 54 14 101 42 140c114 -45 178 -170 192 -373c39 111 102 260 189 449c-23 -11 -55 -16 -94 -16s-83 11 -130 33c4 25 25 50 63 76c39 26 63 45 72 58
c-51 23 -95 75 -133 154c14 21 33 31 55 31c24 0 49 -4 77 -11l60 -15c-7 51 -16 122 -29 211h7c28 0 57 -12 86 -35c9 -7 37 -31 84 -72c19 8 44 31 73 69c30 38 53 62 69 71c17 -11 29 -53 38 -126s14 -113 15 -118c9 -3 20 -4 32 -4z" />
    <glyph glyph-name="Ocircumflex" unicode="&#xd4;" horiz-adv-x="2656" 
d="M1506 -251l-8 90c13 35 19 54 20 56c11 21 26 32 44 35c23 -55 35 -86 35 -93s0 -16 -1 -29c-1 -12 -8 -25 -23 -40c-15 -14 -28 -21 -41 -21c-12 0 -21 1 -26 2zM1609 -251c26 62 66 104 121 125c12 -5 17 -14 16 -26c-5 -27 -7 -37 -7 -30c-6 -20 -19 -42 -37 -66
c-20 -23 -37 -35 -54 -35s-30 11 -39 32zM1294 -260h93c38 -1 64 -13 78 -38c-7 -23 -22 -35 -47 -35s-54 7 -88 19c-33 14 -50 27 -50 42c0 6 5 10 14 12zM1659 -336c31 50 82 75 153 75c9 0 18 0 27 -1c0 -19 -17 -40 -52 -64c-35 -23 -63 -35 -84 -35s-36 8 -44 25z
M1624 -371c0 -45 -25 -70 -76 -74c-41 2 -61 27 -61 75c0 7 1 15 2 22c10 23 35 40 76 50c39 -17 59 -41 59 -73zM1659 -457c-8 11 -12 21 -12 30c0 18 18 27 54 27c52 0 93 -25 124 -76c-26 -14 -55 -21 -89 -21c-32 0 -58 13 -77 40zM1285 -499c-1 29 16 55 49 79
c28 21 55 31 81 31c4 0 8 0 12 -1c15 -2 23 -20 23 -55c-33 -36 -83 -54 -148 -54h-17zM1430 -649l-3 79c7 20 15 40 23 59c12 23 28 35 49 35c7 0 13 -1 19 -2c11 -7 16 -21 16 -42c-1 -21 -1 -37 -1 -50c-21 -53 -55 -79 -103 -79zM1663 -689c-18 14 -38 38 -59 72
c-22 34 -33 64 -33 89s11 43 34 52h5c44 0 66 -47 66 -140c0 -33 -4 -58 -13 -73zM2292 -76c47 -65 77 -105 90 -120c38 -43 74 -69 107 -76c-27 54 -79 127 -156 219c55 -20 106 -52 155 -95c48 -43 72 -87 72 -130c0 -20 -6 -39 -17 -56c-15 -6 -30 -9 -45 -9
c-57 1 -107 31 -150 91c-38 54 -57 106 -57 157c0 7 0 13 1 19zM205 945c19 47 46 71 81 71c10 0 20 -3 30 -9c-4 -18 -16 -48 -36 -89c-19 -41 -29 -76 -29 -103c0 -49 24 -106 72 -172c-89 65 -133 140 -133 226c0 25 5 51 15 76zM422 599c-83 64 -124 131 -124 202
c0 41 14 77 44 110c28 33 63 49 104 49c9 0 18 -1 27 -3c-64 -57 -96 -122 -96 -195c0 -50 15 -104 45 -163zM299 333l62 -72c-28 0 -59 13 -94 40s-52 53 -52 80c0 11 4 21 11 29c115 -41 185 -93 209 -158h-2c-15 0 -38 13 -67 39c-31 27 -53 41 -67 42zM348 206l-92 9
c-22 0 -41 -6 -58 -18c13 -9 32 -14 57 -14h14c9 1 17 1 24 1c19 0 33 -2 42 -6c-21 -26 -49 -39 -87 -39c-36 0 -71 7 -104 21c-33 13 -50 32 -52 56c47 18 96 27 148 27c51 0 97 -12 136 -35c-9 -1 -18 -2 -28 -2zM597 114c14 -5 39 -20 75 -45c37 -25 62 -37 76 -37
c13 0 23 0 29 1c-8 14 -35 33 -81 55c-45 24 -70 42 -75 57c96 0 170 -51 222 -152c-18 -6 -43 -9 -75 -9c-31 0 -68 10 -110 30c-42 19 -63 47 -63 83c0 5 1 11 2 17zM119 -120c35 75 81 141 137 197c58 56 121 84 190 84c0 -4 -28 -26 -83 -65c-55 -40 -88 -73 -97 -98
c23 9 52 28 89 56c37 29 64 48 82 57c-61 -115 -167 -192 -318 -231zM538 95c66 -69 99 -144 99 -225c0 -25 -4 -50 -11 -73c-61 25 -91 87 -91 185c0 13 1 32 1 56c2 26 2 44 2 57zM394 -253l3 168c7 91 27 142 60 155c-19 -74 -28 -120 -28 -138s1 -27 4 -27
c9 0 32 48 71 145c1 -9 1 -19 1 -30c1 -42 -6 -92 -21 -151c-19 -73 -49 -114 -90 -122zM1760 -533l78 -7c24 0 43 9 58 26c1 32 -9 56 -28 73s-44 38 -75 63c5 9 28 29 68 60s60 61 60 90c0 5 -1 11 -2 16c-7 2 -17 3 -29 3c-10 0 -22 -1 -35 -2c-30 -3 -50 -4 -59 -4
s-18 2 -27 6c2 6 9 25 19 55c12 32 17 57 17 76c-9 2 -21 3 -36 3s-39 -11 -75 -35c-34 -22 -57 -36 -66 -40c-11 38 -32 95 -63 172c-44 -37 -80 -112 -109 -225c-31 52 -69 133 -112 245c-44 110 -72 177 -83 200c27 -6 70 -25 131 -58c61 -32 111 -48 150 -48
s81 23 124 70c-43 85 -125 127 -245 127c-33 0 -71 -3 -115 -9c-44 -5 -68 -8 -71 -8c-20 71 -61 269 -123 594c9 22 21 49 37 82v-6c0 -63 11 -115 32 -158c22 -44 60 -103 114 -177c32 21 48 56 48 106s-15 108 -44 173c-29 66 -59 119 -88 160c79 141 135 245 170 314
s67 145 98 229c5 -37 19 -93 39 -168c22 -75 34 -130 39 -165c-11 -24 -21 -48 -31 -71c-17 -29 -38 -44 -63 -44c-7 0 -14 1 -22 2c-49 -14 -73 -43 -73 -87c0 -24 10 -45 30 -64c19 -19 41 -28 66 -28c52 0 78 29 78 87l-2 62c0 41 14 70 42 87c49 -268 196 -577 443 -927
c-19 -49 -38 -96 -55 -141c-18 -46 -27 -91 -27 -135c0 -87 40 -170 121 -247c43 69 64 141 64 218c0 76 -10 139 -31 189c15 -25 46 -67 93 -127c46 -59 69 -93 68 -102l-12 -72c0 -67 26 -134 78 -199s111 -98 177 -98c32 0 59 10 82 29s34 45 34 77
c0 65 -37 129 -111 191c-73 63 -144 95 -211 98l-184 248c73 -33 142 -50 207 -50c105 0 182 37 229 112c-41 51 -108 76 -200 76c-47 0 -102 -6 -165 -19l-118 -23c-102 162 -174 282 -216 359c-85 158 -148 306 -189 445c43 -65 129 -138 256 -218
c127 -81 242 -121 343 -121c10 0 20 0 30 1c92 -163 188 -245 289 -245c23 0 45 5 68 15c-14 83 -40 143 -79 182c-24 24 -56 42 -98 52c-40 12 -63 22 -67 32c80 31 141 83 183 156c43 73 64 151 64 232s-19 147 -58 198c-38 51 -92 80 -163 88c-27 3 -55 4 -86 4
c-117 0 -176 -14 -176 -42c0 -2 0 -4 1 -6c3 -13 14 -19 31 -19s40 2 69 7c28 4 49 6 62 7h26c81 0 136 -14 165 -43c49 -48 73 -108 73 -179c0 -10 -1 -24 -3 -41c-22 -176 -99 -284 -230 -323c57 41 85 99 85 175c0 74 -24 125 -73 150c-85 -43 -127 -103 -127 -180
c0 -35 12 -93 36 -175c-160 21 -305 81 -436 182c-89 69 -158 143 -205 221c5 1 13 2 23 2c9 0 28 -4 55 -14c27 -8 45 -14 52 -15c23 -52 56 -78 101 -78s70 25 76 76c1 5 1 11 1 16c0 21 -6 41 -19 59c-16 23 -40 34 -72 34c-33 0 -64 -22 -93 -66c-41 10 -89 22 -142 37
c-49 206 -83 340 -100 401c43 -65 82 -108 115 -130s85 -33 154 -33c17 0 43 0 79 1c-9 145 -119 227 -330 244l11 44h-86l-22 -44c-10 -3 -23 -4 -38 -4s-42 5 -81 16c-39 10 -68 15 -87 15c-72 0 -135 -52 -189 -157c79 -16 154 -24 225 -24s123 17 156 52
c-1 -7 -9 -29 -24 -64c-60 -36 -135 -71 -226 -104c-91 -34 -168 -57 -231 -70l-59 178c-43 94 -104 141 -182 141c-14 0 -29 -1 -44 -4c-5 -44 -7 -78 -7 -102c0 -52 15 -92 46 -120l162 -116c-70 -3 -142 -4 -215 -4s-142 3 -207 10c-10 70 -39 135 -87 196
c-49 61 -106 101 -172 121c-11 -24 -16 -55 -16 -94c0 -38 14 -82 40 -132c28 -49 58 -88 91 -117c-93 -15 -151 -28 -174 -39c-49 -23 -86 -68 -111 -135c31 -29 71 -44 120 -44s102 19 159 58s105 81 144 127h359c-104 -41 -172 -128 -203 -260c21 -24 45 -36 71 -36
c53 0 114 45 181 134c47 63 84 126 110 187c118 25 262 78 431 159c-51 -96 -127 -241 -228 -436c-65 21 -123 31 -174 31c-87 0 -160 -31 -217 -92c47 -57 99 -86 159 -86c58 0 122 17 189 50c-15 -27 -41 -74 -76 -139c-120 -222 -244 -336 -373 -341c-9 -1 -17 -1 -25 0
c-114 0 -182 37 -204 110c-10 35 -15 69 -15 101c0 34 9 66 28 96c18 32 45 47 81 47h29c10 0 24 -13 42 -39c1 -5 2 -11 2 -16l-15 -65c0 -9 6 -15 17 -17c12 -3 21 5 28 22s10 32 10 45c0 50 -28 90 -83 120c-38 21 -68 35 -89 43c-17 6 -41 9 -72 9c-8 0 -17 0 -26 -1
c-25 37 -57 55 -98 55c-23 0 -42 -6 -59 -17c-49 -33 -74 -87 -74 -162c0 -137 86 -245 258 -322c75 -33 150 -50 225 -50c76 0 140 21 191 62l1 -15c-69 -77 -157 -174 -265 -289c-37 4 -73 23 -107 56c-57 56 -89 87 -96 92c-46 31 -104 47 -173 47c-1 -6 -2 -14 -2 -25
s5 -30 17 -58c10 -29 16 -50 16 -64c0 -13 -3 -26 -10 -37c-53 0 -109 -16 -168 -47c12 -29 42 -56 92 -82c48 -25 79 -46 90 -63c-49 -41 -99 -121 -150 -240c5 -1 11 -1 17 -1c66 0 157 31 272 93c1 -13 2 -31 2 -52v-49c0 -75 8 -131 25 -168c25 8 51 37 78 88
s51 76 70 76c14 -3 33 -20 56 -48c24 -30 46 -47 67 -52c15 44 22 84 22 120c0 37 -1 66 -4 88c21 5 57 9 107 12c52 2 88 10 111 24c-24 73 -62 126 -115 160c-27 18 -64 34 -112 47c-49 13 -73 29 -73 47c193 194 359 399 496 614c10 -94 48 -276 113 -546
c-55 -32 -102 -77 -142 -136c-38 -58 -58 -114 -58 -168s14 -101 42 -140c114 45 178 169 192 372c39 -111 102 -260 189 -449c-23 11 -55 17 -94 17s-83 -11 -130 -34c4 -25 25 -50 63 -76c39 -26 63 -45 72 -58c-51 -23 -95 -75 -133 -154c14 -21 33 -31 55 -31
c24 0 49 4 77 11l60 15c-7 -51 -16 -121 -29 -211h7c28 0 57 12 86 35c9 7 37 31 84 72c19 -8 44 -31 73 -69c30 -38 53 -61 69 -70c17 11 29 52 38 126c9 72 14 112 15 117c9 3 20 4 32 4z" />
    <glyph glyph-name="Oslash" unicode="&#xd8;" horiz-adv-x="386" 
d="M426 1198v-160h-450v160h450z" />
    <glyph glyph-name="Uacute" unicode="&#xda;" horiz-adv-x="910" 
d="M520 386c-24 24 -53 36 -86 36c-1 0 -1 0 -2 1c-33 0 -61 -12 -84 -37c-25 -25 -37 -55 -37 -89c0 -31 12 -59 36 -83c24 -23 51 -35 82 -36h4c33 1 61 14 85 38c25 25 38 54 38 88c-1 31 -13 59 -36 82zM435 530c63 0 116 -23 161 -69c45 -47 68 -101 68 -163
c0 -61 -23 -115 -68 -160s-99 -68 -162 -68h-3c-62 0 -115 23 -159 68c-45 45 -68 99 -68 162s23 117 68 162c46 45 100 68 163 68zM514 1016c-24 24 -53 36 -86 36c-1 0 -1 0 -2 1c-33 0 -61 -12 -84 -37c-25 -25 -37 -55 -37 -89c0 -31 12 -59 36 -83
c24 -23 51 -35 82 -36h4c33 1 61 14 85 38c25 25 38 54 38 88c-1 31 -13 59 -36 82zM429 1160c63 0 116 -23 161 -69c45 -47 68 -101 68 -163c0 -61 -23 -115 -68 -160s-99 -68 -162 -68h-3c-62 0 -115 23 -159 68c-45 45 -68 99 -68 162s23 117 68 162c46 45 100 68 163 68
z" />
    <glyph glyph-name="aring" unicode="&#xe5;" horiz-adv-x="1398" 
d="M291 1520c15 -16 38 -33 68 -50c27 -15 49 -23 66 -23c1 1 3 1 5 1c17 1 84 40 201 114c117 76 218 141 303 196c105 63 228 95 368 95s266 -32 378 -97s190 -152 233 -263c10 -25 15 -48 15 -68c0 -43 -20 -65 -59 -65c-29 0 -56 23 -79 70c-93 188 -248 282 -464 282
h-5c-74 -1 -132 -7 -173 -18c-93 -25 -201 -82 -324 -170c-123 -89 -209 -148 -257 -176c-48 -30 -96 -44 -143 -44c-48 0 -93 13 -134 40c-42 27 -91 66 -148 116c-57 52 -99 85 -126 102c-67 41 -149 62 -246 62h-26l38 136c10 1 20 1 29 1c93 0 173 -18 240 -53
c73 -39 153 -101 240 -188z" />
    <glyph glyph-name="ae" unicode="&#xe6;" horiz-adv-x="26" 
d="M-692 -149c26 26 56 39 92 39c34 0 65 -13 91 -39s39 -57 39 -91c0 -36 -13 -66 -39 -92c-26 -25 -57 -38 -91 -38c-36 0 -66 13 -92 38c-25 26 -38 56 -38 92c0 34 13 65 38 91z" />
    <glyph glyph-name="ccedilla" unicode="&#xe7;" 
d="M-328 -506v106h-278c7 -34 18 -79 34 -136c11 -27 22 -46 34 -58c17 -17 49 -26 96 -26c76 0 114 38 114 114zM-196 -510c0 -54 -15 -102 -46 -144c-43 -59 -110 -89 -199 -89c-9 1 -18 1 -27 1c-103 7 -171 51 -205 134c-18 71 -36 141 -55 212h-86c-25 0 -37 20 -37 59
s14 78 43 115s72 56 130 56c41 0 62 -17 62 -50v-64h292v226h128v-456z" />
    <glyph glyph-name="udieresis" unicode="&#xfc;" 
d="M-798 -542c124 -45 240 -68 347 -68s220 23 337 68v-80c-127 -44 -240 -67 -340 -68h-9c-98 0 -210 23 -335 68v80z" />
    <glyph glyph-name="ydieresis" unicode="&#xff;" horiz-adv-x="1700" 
d="M180 194c-39 0 -59 42 -59 124c0 84 18 134 55 152c6 3 12 4 18 4c23 0 45 -17 66 -50s32 -61 32 -82c-9 -24 -35 -72 -80 -144c-13 -3 -24 -4 -32 -4zM1090 408v-162c-30 -47 -58 -70 -86 -70c-26 0 -53 22 -80 66c-7 13 -11 21 -11 26s3 12 7 22c6 10 10 24 13 44
c3 18 9 43 17 74h140zM1090 516h-134v15c0 36 -4 93 -12 171h146v-186zM470 702v108h-426v-108h310c0 -64 -13 -145 -38 -242c-5 16 -14 37 -26 62c-29 44 -60 66 -91 66c-55 0 -95 -33 -122 -98c-19 -48 -29 -106 -29 -174c0 -69 12 -125 36 -170c24 -44 49 -66 76 -66
c43 0 70 6 84 16c12 12 37 52 72 122c17 -29 28 -71 31 -126s8 -82 13 -84c5 0 18 -1 39 0c21 0 32 1 35 2c0 72 -17 171 -52 297c-7 25 -11 40 -10 45c31 101 51 217 60 350h38zM936 886c0 174 -40 261 -119 261c-37 0 -66 -20 -87 -59c-21 -40 -31 -81 -31 -124v-154h-55
v-108h55l1 -692h74v692c29 1 51 1 66 1s23 0 24 -1c14 -25 21 -67 21 -128c0 -19 -1 -41 -2 -64c-6 -95 -17 -163 -31 -203c-16 -40 -23 -61 -23 -64c0 -19 13 -46 39 -81c39 -51 79 -77 122 -77c24 0 46 7 64 22c20 15 31 29 36 43v-140h78v692h340v-236h-142v58
c0 38 -8 57 -25 57c-17 -1 -35 -13 -55 -37c-31 -37 -46 -77 -45 -120v-5c1 -45 8 -67 19 -67h50c0 -79 5 -142 16 -190c10 -47 33 -86 69 -114c36 -30 67 -44 93 -44c25 0 55 25 88 76c14 21 21 41 21 58c1 19 0 29 -3 29c-1 0 -14 -13 -36 -39c-24 -25 -42 -38 -55 -38
s-26 2 -39 6c-48 16 -72 101 -72 256h200v350h52v108h-870v120c0 64 15 96 45 95h5c29 -5 43 -40 43 -105c0 -11 0 -22 -1 -34h70zM1152 872c34 9 51 59 51 148s-30 134 -91 134c-25 0 -46 -12 -62 -36c-20 -30 -30 -65 -30 -106c0 -40 6 -72 19 -98c13 -24 25 -39 37 -42
c2 19 0 35 -4 49c-6 14 -8 44 -8 89s16 68 48 68c23 0 38 -24 46 -72c2 -11 3 -21 3 -32l-11 -86c0 -5 1 -11 2 -16zM1682 -62h-1678v1258h1678v-1258z" />
    <glyph glyph-name="OE" unicode="&#x152;" horiz-adv-x="2656" 
d="M550 350l90 8c35 -13 54 -19 56 -20c21 -11 32 -25 35 -44c-55 -23 -86 -35 -93 -35s-16 0 -28 1c-13 1 -26 8 -40 23c-15 15 -22 28 -22 41c0 12 1 21 2 26zM550 247c62 -26 104 -66 125 -121c-5 -12 -18 -16 -37 -14c-20 4 -26 5 -19 5c-20 6 -42 19 -65 37
c-24 20 -36 37 -36 54s11 30 32 39zM541 563v-94c-1 -38 -13 -64 -38 -78c-23 7 -35 23 -35 47c0 26 6 55 20 88c12 33 26 50 41 50c6 0 10 -4 12 -13zM465 197c50 -31 75 -82 75 -153c0 -9 0 -18 -1 -27c-19 0 -40 17 -63 52c-24 35 -36 63 -36 84s8 36 25 44zM430 232
c-45 0 -70 25 -74 76c2 41 27 61 75 61c7 0 15 -1 22 -2c23 -10 40 -35 50 -76c-17 -39 -41 -59 -73 -59zM344 197c11 8 21 12 30 12c17 0 26 -18 26 -54c0 -52 -25 -93 -75 -124c-14 26 -21 55 -21 89c0 32 13 58 40 77zM302 571c29 1 55 -16 79 -49c21 -28 31 -55 31 -81
c0 -4 0 -8 -1 -12c-2 -15 -20 -23 -55 -23c-36 33 -54 83 -54 148v17zM152 426l79 3c20 -7 40 -15 59 -23c23 -12 35 -28 35 -49c0 -7 -1 -13 -2 -19c-7 -11 -21 -16 -42 -16c-21 1 -37 1 -50 1c-53 21 -79 55 -79 103zM112 194c13 17 37 37 72 58c34 22 64 33 89 33
s43 -11 52 -34c3 -47 -43 -71 -140 -71c-33 0 -58 5 -73 14zM725 -435c-65 -48 -105 -78 -120 -91c-43 -37 -69 -73 -76 -107c54 27 127 79 219 156c-20 -55 -52 -106 -95 -155c-43 -48 -87 -72 -130 -72c-20 0 -39 6 -56 17c-6 15 -9 30 -9 45c0 57 30 107 90 150
c55 39 108 58 160 58c6 0 12 0 17 -1zM1746 1651c47 -19 71 -46 71 -81c0 -10 -3 -20 -9 -30c-18 4 -48 16 -89 36c-41 19 -76 29 -103 29c-49 0 -106 -24 -172 -72c64 89 139 134 226 134c25 0 51 -5 76 -16zM1400 1434c64 83 131 124 202 124c41 0 77 -14 110 -44
c33 -28 49 -63 49 -104c0 -9 -1 -18 -3 -27c-57 64 -122 96 -195 96c-50 0 -104 -15 -163 -45zM1134 1557l-72 -62c0 28 13 59 40 94s53 52 80 52c11 0 21 -3 29 -10c-41 -116 -93 -186 -158 -210c-1 15 12 38 39 69s41 53 42 67zM1007 1508l9 92c0 22 -6 41 -18 58
c-9 -13 -14 -32 -14 -57v-14c1 -9 1 -17 1 -24c0 -19 -2 -33 -6 -42c-26 21 -39 49 -39 87c0 36 7 71 20 104c14 33 33 50 57 52c18 -47 27 -96 27 -148c0 -51 -12 -97 -35 -136c-1 9 -2 18 -2 28zM915 1259c-5 -14 -20 -39 -45 -75c-25 -37 -37 -62 -37 -76
c0 -13 0 -23 1 -29c14 8 32 35 56 81c22 45 41 70 56 75c0 -96 -51 -170 -152 -221c-6 17 -9 42 -9 74c0 31 10 68 29 110c20 42 48 63 84 63c5 0 11 -1 17 -2zM681 1738c75 -35 141 -81 197 -138s84 -120 84 -190c-4 0 -26 28 -66 83c-39 55 -72 88 -97 97
c9 -23 28 -52 57 -89c28 -37 47 -64 56 -82c-115 61 -192 167 -231 319zM896 1318c-69 -66 -144 -99 -225 -99c-25 0 -50 4 -73 11c25 61 87 92 185 92c13 0 31 -1 57 -2c24 -1 43 -2 56 -2zM548 1462l168 -3c91 -7 142 -27 155 -60c-74 19 -120 28 -138 28s-27 -1 -27 -4
c0 -9 48 -32 145 -71c-9 -1 -18 -1 -27 -1c-43 0 -94 7 -154 22c-73 18 -114 48 -122 89zM268 96l-7 -78c0 -24 9 -43 26 -58h3c31 0 54 9 70 28c17 19 38 45 63 76c9 -6 29 -29 60 -69s61 -60 90 -60c5 0 11 1 16 2c2 7 3 17 3 30c0 10 -1 22 -2 35c-3 29 -4 49 -4 58
c0 10 2 19 6 28c54 -24 98 -36 131 -36c2 9 3 20 3 35s-12 39 -34 75c-24 34 -37 57 -41 66c38 11 95 32 172 63c-37 44 -112 80 -225 109c52 31 134 69 244 113c112 44 178 71 201 82c-6 -27 -25 -70 -57 -131c-33 -61 -49 -111 -49 -150s23 -81 70 -124
c85 43 127 125 127 245c0 33 -3 71 -8 115c-6 44 -9 68 -9 72c71 19 269 60 594 122c22 -9 49 -21 82 -37h-6c-62 1 -114 -10 -157 -31c-44 -21 -103 -59 -178 -114c21 -33 56 -49 106 -49s108 15 174 44c65 29 118 59 159 89c141 -79 245 -136 314 -171s145 -67 229 -98
c-37 -5 -93 -19 -168 -39c-75 -22 -130 -34 -165 -39c-24 11 -48 21 -71 31c-29 17 -44 38 -44 63c0 7 1 14 2 22c-14 49 -43 73 -87 73c-24 0 -45 -10 -64 -30c-19 -19 -28 -41 -28 -66c0 -52 29 -78 87 -78l62 2c41 0 70 -14 87 -42c-268 -49 -577 -196 -927 -443
c-49 19 -96 38 -142 55c-45 18 -90 27 -134 27c-87 0 -170 -40 -247 -121c68 -43 140 -64 217 -64s140 10 190 31c-24 -15 -66 -46 -126 -93c-59 -46 -93 -69 -103 -68h-1c-23 8 -46 12 -71 12c-67 0 -134 -26 -199 -78s-98 -111 -98 -177c0 -32 10 -59 29 -82
s45 -34 77 -34c65 0 129 37 192 111c62 73 94 144 97 211l248 184c-33 -73 -50 -142 -50 -207c0 -105 37 -182 112 -229c50 41 75 108 75 200c0 47 -6 102 -18 165l-23 118c162 102 282 174 359 216c158 85 306 148 445 189c-65 -43 -138 -129 -219 -256
c-80 -127 -120 -242 -120 -343c0 -10 0 -20 1 -30c-163 -92 -245 -188 -245 -288c0 -23 5 -46 15 -69c83 14 143 40 182 79c24 24 41 56 53 98c10 40 21 63 31 67c31 -80 83 -141 156 -183s151 -63 232 -63s147 19 198 57s80 92 88 163c3 27 4 55 4 86
c0 117 -14 176 -42 176c-2 0 -4 0 -6 -1c-13 -3 -19 -14 -19 -31s2 -40 6 -69c5 -28 7 -48 8 -61v-22c0 -84 -14 -141 -43 -170c-48 -49 -108 -73 -179 -73c-10 0 -24 1 -41 4c-176 21 -284 98 -323 229c41 -57 100 -85 174 -85c76 0 126 24 151 73
c-43 85 -103 128 -180 128c-35 0 -93 -12 -175 -36c21 159 81 304 182 435c69 89 143 158 221 206c1 -6 2 -14 2 -24c0 -9 -5 -28 -13 -55c-10 -27 -15 -44 -16 -51c-52 -23 -78 -57 -78 -102s25 -70 75 -76c5 -1 11 -1 16 -1c21 0 41 6 60 19c23 16 34 40 34 72
c0 33 -22 64 -66 93c10 41 22 89 37 142c206 49 340 83 401 100c-65 -43 -108 -81 -130 -115c-22 -32 -33 -84 -33 -154c0 -17 0 -43 1 -79c145 9 227 119 244 330l44 -11v86l-44 22c-3 10 -4 23 -4 38s5 42 15 81c11 39 16 68 16 87c0 73 -52 136 -157 189
c-16 -79 -24 -154 -24 -225s17 -123 52 -156c-7 1 -29 9 -64 24c-36 60 -71 135 -105 226c-33 91 -56 168 -69 231l178 59c94 43 141 104 141 182c0 14 -1 29 -4 44c-44 5 -78 7 -102 7c-52 0 -92 -15 -120 -45l-116 -163c-3 70 -4 142 -4 215s3 142 10 207
c70 10 135 39 196 87c61 49 101 106 121 172c-25 11 -56 17 -94 17s-81 -13 -130 -40s-88 -57 -119 -91c-15 92 -28 150 -39 173c-23 49 -68 87 -135 112c-29 -31 -44 -71 -44 -120s19 -102 58 -159c39 -58 81 -106 127 -145v-359c-41 104 -128 172 -260 203
c-24 -21 -36 -45 -36 -71c0 -53 45 -113 134 -180c63 -47 126 -84 187 -111c25 -118 78 -262 159 -431c-96 52 -241 128 -436 228c21 65 31 123 31 174c0 87 -31 160 -92 217c-57 -47 -86 -99 -86 -159c0 -58 16 -122 49 -189c-27 15 -73 41 -138 76
c-222 120 -336 244 -341 373c-1 9 -1 17 0 25c0 114 37 182 110 204c35 10 68 15 102 15c32 0 64 -9 96 -28c30 -18 46 -45 46 -81v-26c0 -12 -13 -27 -39 -45c-5 -1 -11 -2 -16 -2l-65 15c-9 0 -15 -6 -18 -17c-2 -12 6 -21 23 -28c17 -6 32 -9 45 -9c50 0 90 27 120 82
c20 38 34 68 42 89c6 17 9 41 10 72c0 8 0 17 -1 26c37 25 55 57 55 98c0 23 -6 42 -17 59c-33 49 -87 74 -162 74c-137 0 -245 -86 -322 -258c-33 -75 -50 -150 -50 -225c0 -76 21 -140 62 -191l-15 -1c-77 69 -174 158 -289 265c4 38 23 74 56 107c56 57 87 89 92 96
c31 46 47 104 47 173c-6 1 -14 2 -25 2s-30 -5 -59 -17c-28 -10 -49 -16 -62 -16c-14 0 -27 3 -38 10c0 53 -16 109 -47 168c-29 -11 -56 -42 -81 -91c-26 -49 -47 -80 -64 -91c-41 49 -121 100 -240 151c-1 -5 -1 -11 -1 -17c0 -67 31 -158 93 -273c-13 -1 -31 -2 -52 -2
h-49c-76 0 -132 -8 -168 -25c8 -25 37 -51 88 -78s76 -51 76 -70c-3 -14 -19 -33 -49 -56c-28 -24 -46 -46 -51 -67c44 -15 84 -22 121 -22c36 0 65 2 87 5c5 -21 9 -57 11 -108c3 -51 11 -88 25 -111c73 24 126 62 160 115c18 27 34 64 47 112c13 49 29 73 47 73
c194 -193 399 -359 614 -496c-94 -10 -276 -48 -546 -113c-32 55 -77 102 -135 142c-59 38 -115 58 -170 58c-54 0 -100 -14 -139 -42c45 -114 169 -178 372 -192c-111 -39 -260 -102 -449 -189c11 23 16 55 16 94s-11 83 -33 130c-25 -4 -50 -25 -76 -63
c-26 -39 -45 -63 -58 -72c-23 51 -75 95 -154 133c-21 -14 -31 -33 -31 -55c0 -24 4 -49 11 -77l15 -60c-51 7 -121 16 -211 29v-6c0 -27 12 -56 35 -86c7 -9 31 -38 72 -85c-8 -19 -31 -43 -69 -73s-62 -53 -71 -68c11 -17 54 -30 126 -39c74 -9 113 -14 118 -15
c3 -9 4 -20 4 -32z" />
    <glyph glyph-name="oe" unicode="&#x153;" 
d="M-516 -370l-158 -22c-65 0 -98 28 -98 85c0 55 36 83 107 83c8 0 20 -1 36 -2l50 -8c34 -5 62 -8 85 -8c43 0 76 14 100 42c22 29 43 78 60 148h136c-21 -107 -68 -192 -140 -256c89 -57 135 -121 136 -194v-5c0 -145 -105 -217 -314 -217c-49 0 -108 30 -178 89
c-71 59 -106 103 -106 130c0 9 6 13 20 13c12 0 36 -9 70 -26c66 -45 116 -72 150 -81c33 -9 62 -13 85 -13c93 0 140 31 140 92c0 41 -21 77 -64 106s-82 44 -117 44z" />
    <glyph glyph-name="florin" unicode="&#x192;" horiz-adv-x="1218" 
d="M688 1038v-202c103 -20 194 -70 272 -150c77 -81 116 -172 116 -273c0 -215 -98 -353 -295 -413v160c51 27 84 52 101 77c23 37 35 93 35 170s-32 141 -97 191c-65 52 -136 77 -214 77c-79 0 -150 -25 -215 -77c-65 -50 -97 -114 -97 -192c0 -76 10 -130 30 -160
c20 -31 55 -59 106 -86v-160c-197 60 -295 198 -295 413c0 101 39 192 117 273c77 80 168 130 271 150v202h-529v160h1236v-160h-542zM608 1740c85 0 153 -26 202 -78c36 -38 54 -84 54 -139c0 -61 -21 -113 -64 -157c-30 -32 -53 -48 -68 -48s-23 4 -23 13c0 4 1 8 3 13
c35 63 52 111 52 146c0 87 -52 130 -156 130c-49 0 -87 -12 -114 -36c-28 -25 -42 -55 -42 -92c0 -36 17 -85 52 -148c2 -5 3 -9 3 -13c0 -9 -8 -13 -23 -13s-39 17 -72 52c-40 42 -60 92 -60 149s18 105 54 143c49 52 117 78 202 78zM260 -374c124 -43 240 -64 346 -64
c108 0 220 21 338 64v-148c-55 -13 -168 -27 -340 -44h-24c-95 0 -202 15 -320 44v148zM260 -74c124 -45 240 -68 346 -68c108 0 220 23 338 68v-148c-116 -43 -227 -66 -333 -68h-13c-103 0 -215 23 -338 68v148z" />
    <glyph glyph-name="circumflex" unicode="&#x2c6;" 
d="M-322 1566c26 25 56 38 92 38c34 0 65 -13 91 -38c26 -26 39 -56 39 -92c0 -34 -13 -65 -39 -91s-57 -39 -91 -39c-36 0 -66 13 -92 39c-25 26 -38 57 -38 91c0 36 13 66 38 92z" />
    <glyph glyph-name="tilde" unicode="&#x2dc;" 
d="M-384 -54v-144c69 -12 125 -45 170 -98c43 -51 64 -104 64 -159v-7c-4 -144 -78 -240 -222 -288v132c64 25 96 77 96 158c0 26 -11 53 -33 80c-33 40 -77 60 -133 60s-101 -12 -136 -37s-52 -59 -52 -103c0 -82 30 -135 90 -158v-132c-149 49 -224 146 -224 290
c0 57 23 112 68 165c46 54 103 86 170 97v144h142z" />
    <glyph glyph-name="endash" unicode="&#x2013;" horiz-adv-x="1040" 
d="M924 534h-812v134h812v-134z" />
    <glyph glyph-name="emdash" unicode="&#x2014;" horiz-adv-x="1800" 
d="M100 670h1600v-138h-1600v138z" />
    <glyph glyph-name="quoteleft" unicode="&#x2018;" horiz-adv-x="846" 
d="M462 1526c-55 -35 -99 -76 -130 -126c-31 -48 -47 -84 -47 -108c0 -22 4 -36 11 -40c-3 -4 15 -7 54 -10c98 -8 149 -41 154 -100c1 -5 1 -9 1 -14c0 -39 -13 -68 -39 -88c-29 -23 -62 -34 -102 -34c-38 0 -75 13 -108 40c-49 39 -74 98 -74 176s32 152 95 222
c63 69 118 111 165 126z" />
    <glyph glyph-name="quoteright" unicode="&#x2019;" horiz-adv-x="806" 
d="M388 1048c56 36 100 78 131 128c31 48 47 84 47 107s-3 36 -10 39c3 4 -15 8 -54 11c-99 9 -151 42 -156 101c-1 5 -1 9 -1 14c-1 39 12 68 39 87c29 22 64 33 102 33c40 0 76 -13 110 -39c49 -39 74 -97 74 -175c0 -79 -32 -152 -94 -222c-64 -68 -119 -111 -166 -128z
" />
    <glyph glyph-name="quotesinglbase" unicode="&#x201a;" horiz-adv-x="2656" 
d="M1322 1028c100 214 150 380 150 497s-46 176 -140 176c-92 0 -139 -61 -139 -184s43 -286 129 -489zM1322 12c100 -214 150 -380 150 -496c0 -118 -46 -176 -140 -176c-92 0 -139 61 -139 184s43 285 129 488zM1836 527c214 -101 380 -151 496 -151c118 0 176 46 176 140
c0 92 -61 139 -184 139s-285 -43 -488 -128zM820 527c-214 -101 -380 -151 -496 -151c-118 0 -176 46 -176 140c0 92 61 139 184 139s285 -43 488 -128zM293 35l256 -48c-231 -121 -391 -375 -482 -764c87 39 177 81 272 125c95 43 179 92 253 145c75 53 136 118 183 193
c26 -38 41 -108 45 -210c129 21 229 88 299 201c49 81 93 217 133 407c39 192 65 304 76 339c11 -35 37 -147 76 -339c40 -190 84 -326 133 -407c70 -113 170 -180 299 -201c5 102 20 172 45 210c47 -75 108 -140 183 -193c74 -53 158 -102 253 -145
c95 -44 185 -86 272 -125c-91 389 -251 643 -482 764l256 48c-43 133 -122 233 -238 299c-81 46 -210 85 -387 118c-177 32 -289 56 -336 71c45 15 157 39 334 73c178 32 308 72 389 119c116 67 195 167 238 300l-256 48c231 121 391 375 482 764
c-87 -39 -177 -81 -272 -125c-95 -43 -179 -92 -253 -145c-75 -53 -136 -118 -183 -193c-26 38 -41 108 -45 210c-129 -21 -229 -88 -299 -201c-49 -81 -93 -217 -133 -407c-39 -192 -65 -304 -76 -339c-11 35 -37 147 -76 339c-40 190 -84 326 -133 407
c-70 113 -170 180 -299 201c-5 -102 -20 -172 -45 -210c-47 75 -108 140 -183 193c-74 53 -158 102 -253 145c-95 44 -185 86 -272 125c91 -389 251 -643 482 -764l-256 -48c43 -133 122 -233 238 -299c81 -46 210 -85 387 -118c177 -32 289 -56 336 -71
c-45 -15 -157 -39 -334 -73c-178 -32 -308 -72 -389 -119c-116 -67 -195 -167 -238 -300z" />
    <glyph glyph-name="quotedblleft" unicode="&#x201c;" horiz-adv-x="1250" 
d="M902 1526c-55 -35 -99 -76 -130 -126c-31 -48 -47 -84 -47 -108c0 -22 4 -36 11 -40c-3 -4 15 -7 54 -10c98 -8 149 -41 154 -100c1 -5 1 -9 1 -14c0 -39 -13 -68 -39 -88c-29 -23 -62 -34 -102 -34c-38 0 -75 13 -108 40c-49 39 -74 98 -74 176s32 152 95 222
c63 69 118 111 165 126zM406 1526c-25 -16 -63 -53 -112 -110s-74 -102 -74 -133c0 -15 6 -25 18 -31c-2 -3 16 -7 55 -10c99 -9 151 -42 155 -100c1 -5 1 -9 1 -14c0 -39 -13 -68 -39 -88c-29 -23 -62 -34 -102 -34c-38 0 -75 13 -108 40c-49 39 -74 95 -74 168
s28 146 86 218c56 74 115 119 174 138z" />
    <glyph glyph-name="quotedblright" unicode="&#x201d;" horiz-adv-x="1230" 
d="M332 1048c56 36 100 78 131 128c31 48 47 84 47 107s-3 36 -10 39c1 4 -17 8 -56 11c-99 9 -150 42 -154 101c-1 5 -1 9 -1 14c-1 39 12 68 39 87c29 22 64 33 102 33c40 0 76 -13 109 -39c49 -39 73 -97 73 -175c0 -79 -31 -152 -94 -222c-63 -68 -117 -111 -164 -128z
M828 1048c56 36 100 78 131 128c31 48 47 84 47 107s-3 36 -10 39c3 4 -15 8 -54 11c-99 9 -151 42 -156 101c-1 5 -1 9 -1 14c-1 39 12 68 39 87c29 22 64 33 102 33c40 0 76 -13 110 -39c49 -39 74 -97 74 -175c0 -79 -32 -153 -94 -222c-64 -69 -119 -112 -166 -128z" />
    <glyph glyph-name="dagger" unicode="&#x2020;" 
d="M-271 -572c33 30 53 45 58 45s7 -11 7 -32c0 -20 -15 -48 -44 -84c-53 -64 -117 -96 -192 -96c-46 0 -114 25 -203 74s-144 101 -163 155c1 29 28 77 79 146c51 68 109 116 171 142c64 28 137 45 222 54v112h130v-238c-15 3 -33 5 -52 5c-54 0 -123 -12 -208 -35
c-75 -21 -141 -76 -200 -166c41 -39 89 -72 144 -101c45 -23 88 -35 130 -35c10 0 20 1 30 2c27 4 57 21 91 52z" />
    <glyph glyph-name="bullet" unicode="&#x2022;" horiz-adv-x="860" 
d="M94 596l340 339l340 -339l-340 -340z" />
    <glyph glyph-name="ellipsis" unicode="&#x2026;" horiz-adv-x="2074" 
d="M1646 -30c23 22 50 34 80 34c32 0 58 -12 82 -36c22 -24 34 -53 34 -86s-13 -60 -38 -80s-51 -30 -78 -30c-26 0 -52 10 -76 30c-26 20 -38 47 -38 82c0 34 11 62 34 86zM955 -30c22 22 49 34 79 34c32 0 59 -12 82 -36c24 -24 36 -53 36 -86s-13 -60 -39 -80
s-52 -30 -77 -30c-26 0 -52 10 -76 30c-26 20 -38 47 -38 82c0 34 11 62 33 86zM264 -30c22 22 49 34 80 34s58 -12 80 -36c23 -24 34 -53 34 -86s-12 -60 -36 -80c-25 -20 -50 -30 -76 -30c-25 0 -51 10 -76 30s-38 47 -38 82c0 34 11 62 32 86z" />
    <glyph glyph-name="perthousand" unicode="&#x2030;" horiz-adv-x="2656" 
d="M2105 350l-90 8c-35 -13 -54 -19 -56 -20c-21 -11 -32 -25 -35 -44c55 -23 86 -35 93 -35s16 0 29 1c12 1 25 8 40 23c14 15 21 28 21 41c0 12 -1 21 -2 26zM2105 247c-62 -26 -103 -66 -124 -121c5 -12 17 -16 37 -14c19 4 25 5 18 5c20 6 42 19 66 37
c23 20 35 37 35 54s-11 30 -32 39zM2114 563v-94c1 -38 14 -64 38 -78c23 7 35 23 35 47c0 26 -7 55 -19 88c-14 33 -27 50 -42 50c-6 0 -10 -4 -12 -13zM2190 197c-50 -31 -75 -82 -75 -153c0 -9 0 -18 1 -27c19 0 40 17 64 52c23 35 35 63 35 84s-8 36 -25 44zM2225 232
c45 0 70 25 74 76c-2 41 -27 61 -75 61c-7 0 -15 -1 -22 -2c-23 -10 -40 -35 -50 -76c17 -39 41 -59 73 -59zM2311 197c-11 8 -21 12 -30 12c-17 0 -26 -18 -26 -54c0 -52 25 -93 75 -124c14 26 21 55 21 89c0 32 -13 58 -40 77zM2353 571c-29 1 -55 -16 -79 -49
c-21 -28 -31 -55 -31 -81c0 -4 0 -8 1 -12c2 -15 20 -23 55 -23c36 33 54 83 54 148v17zM2504 426l-80 3c-20 -7 -40 -15 -59 -23c-23 -12 -35 -28 -35 -49c0 -7 1 -13 2 -19c7 -11 21 -16 42 -16c21 1 37 1 50 1c53 21 80 55 80 103zM2330 251c-3 -47 44 -71 140 -71
c33 0 58 5 73 14zM1930 -435c65 -48 105 -78 120 -91c43 -37 69 -73 76 -107c-54 27 -127 79 -219 156c20 -55 52 -106 95 -155c43 -48 87 -72 130 -72c20 0 39 6 56 17c6 15 9 30 9 45c-1 57 -31 107 -91 150c-55 39 -108 58 -159 58c-6 0 -12 0 -17 -1zM909 1651
c-47 -19 -71 -46 -71 -81c0 -10 3 -20 9 -30c18 4 48 16 89 36c42 19 76 29 103 29c49 0 106 -24 172 -72c-64 89 -139 134 -226 134c-25 0 -51 -5 -76 -16zM1255 1434c-64 83 -131 124 -202 124c-41 0 -77 -14 -110 -44c-33 -28 -49 -63 -49 -104c0 -9 1 -18 3 -27
c57 64 122 96 195 96c50 0 104 -15 163 -45zM1521 1557l72 -62c0 28 -13 59 -40 94s-53 52 -80 52c-11 0 -21 -3 -29 -10c41 -116 94 -186 158 -210c2 15 -11 38 -38 69c-28 31 -42 53 -43 67zM1649 1508l-10 92c0 22 6 41 18 58c10 -13 15 -32 15 -56v-15
c-1 -9 -1 -18 -2 -26c0 -18 2 -31 6 -40c26 21 39 49 39 87c0 36 -7 71 -20 104s-32 50 -57 52c-18 -47 -27 -96 -27 -148c0 -51 12 -97 35 -136c2 9 3 18 3 28zM1740 1259c5 -14 20 -39 45 -75c25 -37 37 -62 37 -76c0 -13 0 -23 -1 -29c-14 8 -33 35 -55 81
c-24 45 -42 70 -57 75c0 -96 51 -170 153 -221c5 17 8 42 8 74c0 31 -10 68 -30 110c-19 42 -47 63 -83 63c-5 0 -11 -1 -17 -2zM1974 1738c-75 -35 -141 -81 -197 -138s-84 -120 -84 -190c4 0 26 28 65 83c40 55 73 88 98 97c-9 -23 -28 -52 -56 -89
c-29 -37 -47 -64 -56 -82c115 61 191 167 230 319zM1759 1318c69 -66 144 -99 225 -99c25 0 50 4 73 11c-25 61 -87 92 -185 92c-13 0 -32 -1 -56 -2c-26 -1 -44 -2 -57 -2zM2107 1462l-168 -3c-91 -7 -142 -27 -155 -60c74 19 120 28 138 28s27 -1 27 -4
c0 -9 -48 -32 -145 -71c9 -1 18 -1 27 -1c43 0 94 7 154 22c73 18 114 48 122 89zM2387 96l7 -78c0 -24 -9 -43 -26 -58h-3c-31 0 -54 9 -70 28c-17 19 -38 45 -63 76c-9 -6 -29 -29 -60 -69s-61 -60 -90 -60c-5 0 -11 1 -16 2c-2 7 -3 17 -3 30c0 10 1 22 2 35
c3 29 4 49 4 58c0 10 -2 19 -5 28c-60 -24 -104 -36 -132 -36c-2 9 -3 20 -3 35s11 39 35 75c22 34 36 57 41 66c-39 11 -96 32 -173 63c37 44 112 80 225 109c-52 31 -133 69 -245 113c-110 44 -177 71 -199 82c5 -27 24 -70 57 -131c32 -61 48 -111 48 -150
s-23 -81 -69 -124c-85 43 -128 125 -128 245c0 33 3 71 9 115c5 44 8 68 8 72c-71 19 -269 60 -594 122c-21 -9 -49 -21 -82 -37h6c63 1 115 -10 158 -31c44 -21 103 -59 177 -114c-21 -33 -56 -49 -106 -49s-108 15 -173 44c-66 29 -119 59 -160 89
c-141 -79 -245 -136 -314 -171c-68 -35 -144 -67 -229 -98c37 -5 93 -19 168 -39c75 -22 130 -34 165 -39c24 11 48 21 71 31c29 17 44 38 44 63c0 7 -1 14 -2 22c14 49 43 73 87 73c25 0 46 -10 64 -30c19 -19 28 -41 28 -66c0 -52 -29 -78 -87 -78l-62 2
c-41 0 -70 -14 -87 -42c268 -49 577 -196 927 -443c49 19 96 38 141 55c46 18 91 27 135 27c87 0 170 -40 247 -121c-68 -43 -140 -64 -217 -64s-140 10 -190 31c24 -15 66 -46 127 -93c59 -46 93 -69 102 -68h1c23 8 46 12 71 12c68 0 134 -26 200 -78
c64 -52 97 -111 97 -177c0 -32 -10 -59 -29 -82s-45 -34 -77 -34c-65 0 -129 37 -191 111c-63 73 -95 144 -98 211l-248 184c33 -73 50 -142 50 -207c0 -105 -37 -182 -112 -229c-50 41 -75 108 -75 200c0 47 6 102 18 165l23 118c-162 102 -282 174 -359 216
c-158 85 -306 148 -445 189c65 -43 138 -129 218 -256c81 -127 121 -242 121 -343c0 -10 0 -20 -1 -30c164 -92 246 -188 246 -288c0 -23 -5 -46 -16 -69c-83 14 -143 40 -182 79c-24 24 -42 56 -52 98c-12 40 -22 63 -32 67c-31 -80 -83 -141 -156 -183s-151 -63 -232 -63
s-147 19 -198 57s-80 92 -88 163c-3 27 -4 55 -4 86c0 117 14 176 42 176c2 0 4 0 6 -1c13 -3 19 -14 19 -31s-2 -40 -7 -69c-4 -28 -6 -48 -7 -61v-22c0 -84 14 -141 43 -170c48 -49 108 -73 179 -73c10 0 24 1 41 4c176 21 284 98 324 229c-42 -57 -100 -85 -176 -85
c-74 0 -125 24 -150 73c43 85 103 128 180 128c35 0 93 -12 175 -36c-20 159 -81 304 -182 435c-69 89 -143 158 -221 206c-1 -6 -2 -14 -2 -24c0 -9 4 -28 14 -55c8 -27 14 -44 15 -51c52 -23 78 -57 78 -102s-25 -70 -75 -76c-5 -1 -11 -1 -16 -1c-21 0 -41 6 -60 19
c-23 16 -34 40 -34 72c0 33 22 64 66 93c-10 41 -22 89 -37 142c-206 49 -340 83 -401 100c65 -43 108 -81 130 -115c22 -32 33 -84 33 -154c0 -17 0 -43 -1 -79c-145 9 -227 119 -244 330l-44 -11v86l44 22c3 10 5 23 5 38s-5 42 -16 81s-16 68 -16 87c0 73 52 136 157 189
c16 -79 24 -154 24 -225s-17 -123 -52 -156c7 1 29 9 64 24c36 60 71 135 104 226c34 91 57 168 70 231l-178 59c-94 43 -141 104 -141 182c0 14 1 29 4 44c44 5 78 7 102 7c52 0 92 -15 120 -45l116 -163c3 70 5 142 5 215s-4 142 -11 207c-70 10 -135 39 -196 87
c-61 49 -101 106 -120 172c24 11 55 17 93 17s81 -13 130 -40s88 -57 119 -91c15 92 28 150 39 173c23 49 68 87 135 112c29 -31 44 -71 44 -120s-19 -102 -58 -159c-39 -58 -81 -106 -127 -145v-359c41 104 128 172 260 203c24 -21 36 -45 36 -71c0 -53 -45 -113 -134 -180
c-63 -47 -126 -84 -187 -111c-25 -118 -78 -262 -159 -431c96 52 241 128 436 228c-21 65 -31 123 -31 174c0 87 31 160 93 217c57 -47 85 -99 85 -159c0 -58 -16 -122 -49 -189c27 15 73 41 138 76c221 121 335 245 341 374c1 9 1 17 0 24c0 114 -37 182 -110 204
c-35 10 -69 15 -101 15c-34 0 -66 -9 -96 -28c-32 -18 -47 -45 -47 -81v-26c0 -12 13 -27 39 -45c5 -1 11 -2 16 -2l65 15c9 0 15 -6 17 -17c3 -12 -5 -21 -22 -28c-17 -6 -32 -9 -45 -9c-50 0 -90 27 -120 82c-21 38 -35 68 -43 89c-6 17 -9 41 -9 72c0 8 0 17 1 26
c-37 25 -55 57 -55 98c0 23 6 42 18 59c33 49 86 74 161 74c137 0 245 -86 322 -258c33 -75 50 -150 50 -225c0 -76 -21 -140 -62 -191l16 -1c77 69 173 158 288 265c-4 38 -23 74 -56 107c-56 57 -87 89 -92 96c-31 46 -47 104 -47 173c6 1 14 2 25 2s30 -5 58 -17
c29 -10 50 -16 64 -16c13 0 26 3 37 10c0 53 16 109 47 168c29 -11 56 -42 82 -91s47 -80 63 -91c41 49 121 100 240 151c1 -5 1 -11 1 -17c0 -67 -31 -158 -92 -273c13 -1 30 -2 51 -2h49c76 0 132 -8 168 -25c-8 -25 -37 -51 -88 -78s-76 -51 -76 -70c3 -14 20 -33 48 -56
c30 -24 47 -46 52 -67c-44 -15 -84 -22 -120 -22c-37 0 -66 2 -88 5c-5 -21 -8 -57 -11 -108s-11 -88 -25 -111c-72 24 -125 62 -160 115c-18 27 -34 64 -47 112c-13 49 -29 73 -47 73c-194 -193 -399 -359 -614 -496c94 -10 276 -48 546 -113c32 55 77 102 136 142
c58 38 114 58 168 58c55 0 102 -14 141 -42c-45 -114 -170 -178 -373 -192c111 -39 260 -102 449 -189c-11 23 -16 55 -16 94s11 83 33 130c25 -4 50 -25 76 -63c26 -39 45 -63 58 -72c23 51 75 95 154 133c21 -14 31 -33 31 -55c0 -24 -4 -49 -11 -77l-15 -60
c51 7 122 16 211 29v-6c0 -27 -12 -56 -35 -86c-7 -9 -31 -38 -72 -85c8 -19 31 -43 69 -73s62 -53 71 -68c-11 -17 -53 -30 -126 -39s-113 -14 -118 -15c-3 -9 -4 -20 -4 -32z" />
    <glyph glyph-name="guilsinglleft" unicode="&#x2039;" horiz-adv-x="1160" 
d="M646 311c24 -23 36 -51 36 -84s-13 -59 -39 -78s-52 -29 -79 -29c-26 0 -51 9 -76 28c-24 19 -36 45 -36 79s11 62 34 85c22 23 48 34 79 34s58 -12 81 -35zM646 1077c24 -23 36 -52 36 -85s-13 -60 -38 -79c-26 -19 -52 -29 -79 -29s-52 10 -77 29c-24 19 -36 46 -36 80
s11 62 34 85c22 23 48 34 79 34s58 -12 81 -35zM46 536v162h1038v-162h-1038z" />
    <glyph glyph-name="partialdiff" unicode="&#x2202;" horiz-adv-x="1140" 
 />
    <glyph glyph-name=".null" horiz-adv-x="0" 
 />
    <glyph glyph-name="nonmarkingreturn" horiz-adv-x="700" 
 />
  </font>
</defs>
</svg>
